<?xml version="1.0" encoding="utf-8" standalone="no"?>
<!DOCTYPE svg PUBLIC "-//W3C//DTD SVG 1.1//EN"
  "http://www.w3.org/Graphics/SVG/1.1/DTD/svg11.dtd">
<!-- Created with matplotlib (https://matplotlib.org/) -->
<svg height="504pt" version="1.1" viewBox="0 0 1080 504" width="1080pt" xmlns="http://www.w3.org/2000/svg" xmlns:xlink="http://www.w3.org/1999/xlink">
 <defs>
  <style type="text/css">
*{stroke-linecap:butt;stroke-linejoin:round;}
  </style>
 </defs>
 <g id="figure_1">
  <g id="patch_1">
   <path d="M 0 504 
L 1080 504 
L 1080 0 
L 0 0 
z
" style="fill:#ffffff;"/>
  </g>
  <g id="axes_1">
   <g id="patch_2">
    <path d="M 55.409673 461.54 
L 1059.320253 461.54 
L 1059.320253 38.96 
L 55.409673 38.96 
z
" style="fill:#ffffff;"/>
   </g>
   <g id="matplotlib.axis_1">
    <g id="xtick_1">
     <g id="text_1">
      <!-- 0 -->
      <defs>
       <path d="M 31.78125 66.40625 
Q 24.171875 66.40625 20.328125 58.90625 
Q 16.5 51.421875 16.5 36.375 
Q 16.5 21.390625 20.328125 13.890625 
Q 24.171875 6.390625 31.78125 6.390625 
Q 39.453125 6.390625 43.28125 13.890625 
Q 47.125 21.390625 47.125 36.375 
Q 47.125 51.421875 43.28125 58.90625 
Q 39.453125 66.40625 31.78125 66.40625 
z
M 31.78125 74.21875 
Q 44.046875 74.21875 50.515625 64.515625 
Q 56.984375 54.828125 56.984375 36.375 
Q 56.984375 17.96875 50.515625 8.265625 
Q 44.046875 -1.421875 31.78125 -1.421875 
Q 19.53125 -1.421875 13.0625 8.265625 
Q 6.59375 17.96875 6.59375 36.375 
Q 6.59375 54.828125 13.0625 64.515625 
Q 19.53125 74.21875 31.78125 74.21875 
z
" id="DejaVuSans-48"/>
      </defs>
      <g style="fill:#262626;" transform="translate(88.107513 486.79612)scale(0.20736 -0.20736)">
       <use xlink:href="#DejaVuSans-48"/>
      </g>
     </g>
    </g>
    <g id="xtick_2">
     <g id="text_2">
      <!-- 50 -->
      <defs>
       <path d="M 10.796875 72.90625 
L 49.515625 72.90625 
L 49.515625 64.59375 
L 19.828125 64.59375 
L 19.828125 46.734375 
Q 21.96875 47.46875 24.109375 47.828125 
Q 26.265625 48.1875 28.421875 48.1875 
Q 40.625 48.1875 47.75 41.5 
Q 54.890625 34.8125 54.890625 23.390625 
Q 54.890625 11.625 47.5625 5.09375 
Q 40.234375 -1.421875 26.90625 -1.421875 
Q 22.3125 -1.421875 17.546875 -0.640625 
Q 12.796875 0.140625 7.71875 1.703125 
L 7.71875 11.625 
Q 12.109375 9.234375 16.796875 8.0625 
Q 21.484375 6.890625 26.703125 6.890625 
Q 35.15625 6.890625 40.078125 11.328125 
Q 45.015625 15.765625 45.015625 23.390625 
Q 45.015625 31 40.078125 35.4375 
Q 35.15625 39.890625 26.703125 39.890625 
Q 22.75 39.890625 18.8125 39.015625 
Q 14.890625 38.140625 10.796875 36.28125 
z
" id="DejaVuSans-53"/>
      </defs>
      <g style="fill:#262626;" transform="translate(239.956356 486.79612)scale(0.20736 -0.20736)">
       <use xlink:href="#DejaVuSans-53"/>
       <use x="63.623047" xlink:href="#DejaVuSans-48"/>
      </g>
     </g>
    </g>
    <g id="xtick_3">
     <g id="text_3">
      <!-- 100 -->
      <defs>
       <path d="M 12.40625 8.296875 
L 28.515625 8.296875 
L 28.515625 63.921875 
L 10.984375 60.40625 
L 10.984375 69.390625 
L 28.421875 72.90625 
L 38.28125 72.90625 
L 38.28125 8.296875 
L 54.390625 8.296875 
L 54.390625 0 
L 12.40625 0 
z
" id="DejaVuSans-49"/>
      </defs>
      <g style="fill:#262626;" transform="translate(391.805199 486.79612)scale(0.20736 -0.20736)">
       <use xlink:href="#DejaVuSans-49"/>
       <use x="63.623047" xlink:href="#DejaVuSans-48"/>
       <use x="127.246094" xlink:href="#DejaVuSans-48"/>
      </g>
     </g>
    </g>
    <g id="xtick_4">
     <g id="text_4">
      <!-- 150 -->
      <g style="fill:#262626;" transform="translate(550.250682 486.79612)scale(0.20736 -0.20736)">
       <use xlink:href="#DejaVuSans-49"/>
       <use x="63.623047" xlink:href="#DejaVuSans-53"/>
       <use x="127.246094" xlink:href="#DejaVuSans-48"/>
      </g>
     </g>
    </g>
    <g id="xtick_5">
     <g id="text_5">
      <!-- 200 -->
      <defs>
       <path d="M 19.1875 8.296875 
L 53.609375 8.296875 
L 53.609375 0 
L 7.328125 0 
L 7.328125 8.296875 
Q 12.9375 14.109375 22.625 23.890625 
Q 32.328125 33.6875 34.8125 36.53125 
Q 39.546875 41.84375 41.421875 45.53125 
Q 43.3125 49.21875 43.3125 52.78125 
Q 43.3125 58.59375 39.234375 62.25 
Q 35.15625 65.921875 28.609375 65.921875 
Q 23.96875 65.921875 18.8125 64.3125 
Q 13.671875 62.703125 7.8125 59.421875 
L 7.8125 69.390625 
Q 13.765625 71.78125 18.9375 73 
Q 24.125 74.21875 28.421875 74.21875 
Q 39.75 74.21875 46.484375 68.546875 
Q 53.21875 62.890625 53.21875 53.421875 
Q 53.21875 48.921875 51.53125 44.890625 
Q 49.859375 40.875 45.40625 35.40625 
Q 44.1875 33.984375 37.640625 27.21875 
Q 31.109375 20.453125 19.1875 8.296875 
z
" id="DejaVuSans-50"/>
      </defs>
      <g style="fill:#262626;" transform="translate(708.696165 486.79612)scale(0.20736 -0.20736)">
       <use xlink:href="#DejaVuSans-50"/>
       <use x="63.623047" xlink:href="#DejaVuSans-48"/>
       <use x="127.246094" xlink:href="#DejaVuSans-48"/>
      </g>
     </g>
    </g>
    <g id="xtick_6">
     <g id="text_6">
      <!-- 250 -->
      <g style="fill:#262626;" transform="translate(867.141648 486.79612)scale(0.20736 -0.20736)">
       <use xlink:href="#DejaVuSans-50"/>
       <use x="63.623047" xlink:href="#DejaVuSans-53"/>
       <use x="127.246094" xlink:href="#DejaVuSans-48"/>
      </g>
     </g>
    </g>
    <g id="xtick_7">
     <g id="text_7">
      <!-- 300 -->
      <defs>
       <path d="M 40.578125 39.3125 
Q 47.65625 37.796875 51.625 33 
Q 55.609375 28.21875 55.609375 21.1875 
Q 55.609375 10.40625 48.1875 4.484375 
Q 40.765625 -1.421875 27.09375 -1.421875 
Q 22.515625 -1.421875 17.65625 -0.515625 
Q 12.796875 0.390625 7.625 2.203125 
L 7.625 11.71875 
Q 11.71875 9.328125 16.59375 8.109375 
Q 21.484375 6.890625 26.8125 6.890625 
Q 36.078125 6.890625 40.9375 10.546875 
Q 45.796875 14.203125 45.796875 21.1875 
Q 45.796875 27.640625 41.28125 31.265625 
Q 36.765625 34.90625 28.71875 34.90625 
L 20.21875 34.90625 
L 20.21875 43.015625 
L 29.109375 43.015625 
Q 36.375 43.015625 40.234375 45.921875 
Q 44.09375 48.828125 44.09375 54.296875 
Q 44.09375 59.90625 40.109375 62.90625 
Q 36.140625 65.921875 28.71875 65.921875 
Q 24.65625 65.921875 20.015625 65.03125 
Q 15.375 64.15625 9.8125 62.3125 
L 9.8125 71.09375 
Q 15.4375 72.65625 20.34375 73.4375 
Q 25.25 74.21875 29.59375 74.21875 
Q 40.828125 74.21875 47.359375 69.109375 
Q 53.90625 64.015625 53.90625 55.328125 
Q 53.90625 49.265625 50.4375 45.09375 
Q 46.96875 40.921875 40.578125 39.3125 
z
" id="DejaVuSans-51"/>
      </defs>
      <g style="fill:#262626;" transform="translate(1025.587131 486.79612)scale(0.20736 -0.20736)">
       <use xlink:href="#DejaVuSans-51"/>
       <use x="63.623047" xlink:href="#DejaVuSans-48"/>
       <use x="127.246094" xlink:href="#DejaVuSans-48"/>
      </g>
     </g>
    </g>
   </g>
   <g id="matplotlib.axis_2">
    <g id="ytick_1">
     <g id="text_8">
      <!-- 0 -->
      <g style="fill:#262626;" transform="translate(32.327738 473.90378)rotate(-30)scale(0.20736 -0.20736)">
       <use xlink:href="#DejaVuSans-48"/>
      </g>
     </g>
    </g>
    <g id="ytick_2">
     <g id="text_9">
      <!-- 2 -->
      <g style="fill:#262626;" transform="translate(32.327738 409.876507)rotate(-30)scale(0.20736 -0.20736)">
       <use xlink:href="#DejaVuSans-50"/>
      </g>
     </g>
    </g>
    <g id="ytick_3">
     <g id="text_10">
      <!-- 4 -->
      <defs>
       <path d="M 37.796875 64.3125 
L 12.890625 25.390625 
L 37.796875 25.390625 
z
M 35.203125 72.90625 
L 47.609375 72.90625 
L 47.609375 25.390625 
L 58.015625 25.390625 
L 58.015625 17.1875 
L 47.609375 17.1875 
L 47.609375 0 
L 37.796875 0 
L 37.796875 17.1875 
L 4.890625 17.1875 
L 4.890625 26.703125 
z
" id="DejaVuSans-52"/>
      </defs>
      <g style="fill:#262626;" transform="translate(32.327738 345.849235)rotate(-30)scale(0.20736 -0.20736)">
       <use xlink:href="#DejaVuSans-52"/>
      </g>
     </g>
    </g>
    <g id="ytick_4">
     <g id="text_11">
      <!-- 6 -->
      <defs>
       <path d="M 33.015625 40.375 
Q 26.375 40.375 22.484375 35.828125 
Q 18.609375 31.296875 18.609375 23.390625 
Q 18.609375 15.53125 22.484375 10.953125 
Q 26.375 6.390625 33.015625 6.390625 
Q 39.65625 6.390625 43.53125 10.953125 
Q 47.40625 15.53125 47.40625 23.390625 
Q 47.40625 31.296875 43.53125 35.828125 
Q 39.65625 40.375 33.015625 40.375 
z
M 52.59375 71.296875 
L 52.59375 62.3125 
Q 48.875 64.0625 45.09375 64.984375 
Q 41.3125 65.921875 37.59375 65.921875 
Q 27.828125 65.921875 22.671875 59.328125 
Q 17.53125 52.734375 16.796875 39.40625 
Q 19.671875 43.65625 24.015625 45.921875 
Q 28.375 48.1875 33.59375 48.1875 
Q 44.578125 48.1875 50.953125 41.515625 
Q 57.328125 34.859375 57.328125 23.390625 
Q 57.328125 12.15625 50.6875 5.359375 
Q 44.046875 -1.421875 33.015625 -1.421875 
Q 20.359375 -1.421875 13.671875 8.265625 
Q 6.984375 17.96875 6.984375 36.375 
Q 6.984375 53.65625 15.1875 63.9375 
Q 23.390625 74.21875 37.203125 74.21875 
Q 40.921875 74.21875 44.703125 73.484375 
Q 48.484375 72.75 52.59375 71.296875 
z
" id="DejaVuSans-54"/>
      </defs>
      <g style="fill:#262626;" transform="translate(32.327738 281.821962)rotate(-30)scale(0.20736 -0.20736)">
       <use xlink:href="#DejaVuSans-54"/>
      </g>
     </g>
    </g>
    <g id="ytick_5">
     <g id="text_12">
      <!-- 8 -->
      <defs>
       <path d="M 31.78125 34.625 
Q 24.75 34.625 20.71875 30.859375 
Q 16.703125 27.09375 16.703125 20.515625 
Q 16.703125 13.921875 20.71875 10.15625 
Q 24.75 6.390625 31.78125 6.390625 
Q 38.8125 6.390625 42.859375 10.171875 
Q 46.921875 13.96875 46.921875 20.515625 
Q 46.921875 27.09375 42.890625 30.859375 
Q 38.875 34.625 31.78125 34.625 
z
M 21.921875 38.8125 
Q 15.578125 40.375 12.03125 44.71875 
Q 8.5 49.078125 8.5 55.328125 
Q 8.5 64.0625 14.71875 69.140625 
Q 20.953125 74.21875 31.78125 74.21875 
Q 42.671875 74.21875 48.875 69.140625 
Q 55.078125 64.0625 55.078125 55.328125 
Q 55.078125 49.078125 51.53125 44.71875 
Q 48 40.375 41.703125 38.8125 
Q 48.828125 37.15625 52.796875 32.3125 
Q 56.78125 27.484375 56.78125 20.515625 
Q 56.78125 9.90625 50.3125 4.234375 
Q 43.84375 -1.421875 31.78125 -1.421875 
Q 19.734375 -1.421875 13.25 4.234375 
Q 6.78125 9.90625 6.78125 20.515625 
Q 6.78125 27.484375 10.78125 32.3125 
Q 14.796875 37.15625 21.921875 38.8125 
z
M 18.3125 54.390625 
Q 18.3125 48.734375 21.84375 45.5625 
Q 25.390625 42.390625 31.78125 42.390625 
Q 38.140625 42.390625 41.71875 45.5625 
Q 45.3125 48.734375 45.3125 54.390625 
Q 45.3125 60.0625 41.71875 63.234375 
Q 38.140625 66.40625 31.78125 66.40625 
Q 25.390625 66.40625 21.84375 63.234375 
Q 18.3125 60.0625 18.3125 54.390625 
z
" id="DejaVuSans-56"/>
      </defs>
      <g style="fill:#262626;" transform="translate(32.327738 217.794689)rotate(-30)scale(0.20736 -0.20736)">
       <use xlink:href="#DejaVuSans-56"/>
      </g>
     </g>
    </g>
    <g id="ytick_6">
     <g id="text_13">
      <!-- 10 -->
      <g style="fill:#262626;" transform="translate(20.902022 160.364057)rotate(-30)scale(0.20736 -0.20736)">
       <use xlink:href="#DejaVuSans-49"/>
       <use x="63.623047" xlink:href="#DejaVuSans-48"/>
      </g>
     </g>
    </g>
    <g id="ytick_7">
     <g id="text_14">
      <!-- 12 -->
      <g style="fill:#262626;" transform="translate(20.902022 96.336784)rotate(-30)scale(0.20736 -0.20736)">
       <use xlink:href="#DejaVuSans-49"/>
       <use x="63.623047" xlink:href="#DejaVuSans-50"/>
      </g>
     </g>
    </g>
   </g>
   <g id="patch_3">
    <path clip-path="url(#p56ff5bb1ba)" d="M 101.041972 461.54 
L 123.858122 461.54 
L 123.858122 141.403636 
L 101.041972 141.403636 
z
" style="fill:#2e1e3b;fill-opacity:0.5;stroke:#ffffff;stroke-linejoin:miter;stroke-width:0.678449;"/>
   </g>
   <g id="patch_4">
    <path clip-path="url(#p56ff5bb1ba)" d="M 123.858122 461.54 
L 146.674271 461.54 
L 146.674271 301.471818 
L 123.858122 301.471818 
z
" style="fill:#2e1e3b;fill-opacity:0.5;stroke:#ffffff;stroke-linejoin:miter;stroke-width:0.678449;"/>
   </g>
   <g id="patch_5">
    <path clip-path="url(#p56ff5bb1ba)" d="M 146.674271 461.54 
L 169.490421 461.54 
L 169.490421 141.403636 
L 146.674271 141.403636 
z
" style="fill:#2e1e3b;fill-opacity:0.5;stroke:#ffffff;stroke-linejoin:miter;stroke-width:0.678449;"/>
   </g>
   <g id="patch_6">
    <path clip-path="url(#p56ff5bb1ba)" d="M 169.490421 461.54 
L 192.30657 461.54 
L 192.30657 77.376364 
L 169.490421 77.376364 
z
" style="fill:#2e1e3b;fill-opacity:0.5;stroke:#ffffff;stroke-linejoin:miter;stroke-width:0.678449;"/>
   </g>
   <g id="patch_7">
    <path clip-path="url(#p56ff5bb1ba)" d="M 192.30657 461.54 
L 215.12272 461.54 
L 215.12272 237.444545 
L 192.30657 237.444545 
z
" style="fill:#2e1e3b;fill-opacity:0.5;stroke:#ffffff;stroke-linejoin:miter;stroke-width:0.678449;"/>
   </g>
   <g id="patch_8">
    <path clip-path="url(#p56ff5bb1ba)" d="M 215.12272 461.54 
L 237.93887 461.54 
L 237.93887 237.444545 
L 215.12272 237.444545 
z
" style="fill:#2e1e3b;fill-opacity:0.5;stroke:#ffffff;stroke-linejoin:miter;stroke-width:0.678449;"/>
   </g>
   <g id="patch_9">
    <path clip-path="url(#p56ff5bb1ba)" d="M 237.93887 461.54 
L 260.755019 461.54 
L 260.755019 397.512727 
L 237.93887 397.512727 
z
" style="fill:#2e1e3b;fill-opacity:0.5;stroke:#ffffff;stroke-linejoin:miter;stroke-width:0.678449;"/>
   </g>
   <g id="patch_10">
    <path clip-path="url(#p56ff5bb1ba)" d="M 260.755019 461.54 
L 283.571169 461.54 
L 283.571169 333.485455 
L 260.755019 333.485455 
z
" style="fill:#2e1e3b;fill-opacity:0.5;stroke:#ffffff;stroke-linejoin:miter;stroke-width:0.678449;"/>
   </g>
   <g id="patch_11">
    <path clip-path="url(#p56ff5bb1ba)" d="M 283.571169 461.54 
L 306.387318 461.54 
L 306.387318 205.430909 
L 283.571169 205.430909 
z
" style="fill:#2e1e3b;fill-opacity:0.5;stroke:#ffffff;stroke-linejoin:miter;stroke-width:0.678449;"/>
   </g>
   <g id="patch_12">
    <path clip-path="url(#p56ff5bb1ba)" d="M 306.387318 461.54 
L 329.203468 461.54 
L 329.203468 301.471818 
L 306.387318 301.471818 
z
" style="fill:#2e1e3b;fill-opacity:0.5;stroke:#ffffff;stroke-linejoin:miter;stroke-width:0.678449;"/>
   </g>
   <g id="patch_13">
    <path clip-path="url(#p56ff5bb1ba)" d="M 329.203468 461.54 
L 352.019617 461.54 
L 352.019617 397.512727 
L 329.203468 397.512727 
z
" style="fill:#2e1e3b;fill-opacity:0.5;stroke:#ffffff;stroke-linejoin:miter;stroke-width:0.678449;"/>
   </g>
   <g id="patch_14">
    <path clip-path="url(#p56ff5bb1ba)" d="M 352.019617 461.54 
L 374.835767 461.54 
L 374.835767 461.54 
L 352.019617 461.54 
z
" style="fill:#2e1e3b;fill-opacity:0.5;stroke:#ffffff;stroke-linejoin:miter;stroke-width:0.678449;"/>
   </g>
   <g id="patch_15">
    <path clip-path="url(#p56ff5bb1ba)" d="M 374.835767 461.54 
L 397.651916 461.54 
L 397.651916 397.512727 
L 374.835767 397.512727 
z
" style="fill:#2e1e3b;fill-opacity:0.5;stroke:#ffffff;stroke-linejoin:miter;stroke-width:0.678449;"/>
   </g>
   <g id="patch_16">
    <path clip-path="url(#p56ff5bb1ba)" d="M 397.651916 461.54 
L 420.468066 461.54 
L 420.468066 365.499091 
L 397.651916 365.499091 
z
" style="fill:#2e1e3b;fill-opacity:0.5;stroke:#ffffff;stroke-linejoin:miter;stroke-width:0.678449;"/>
   </g>
   <g id="patch_17">
    <path clip-path="url(#p56ff5bb1ba)" d="M 420.468066 461.54 
L 443.284215 461.54 
L 443.284215 429.526364 
L 420.468066 429.526364 
z
" style="fill:#2e1e3b;fill-opacity:0.5;stroke:#ffffff;stroke-linejoin:miter;stroke-width:0.678449;"/>
   </g>
   <g id="patch_18">
    <path clip-path="url(#p56ff5bb1ba)" d="M 443.284215 461.54 
L 466.100365 461.54 
L 466.100365 429.526364 
L 443.284215 429.526364 
z
" style="fill:#2e1e3b;fill-opacity:0.5;stroke:#ffffff;stroke-linejoin:miter;stroke-width:0.678449;"/>
   </g>
   <g id="patch_19">
    <path clip-path="url(#p56ff5bb1ba)" d="M 466.100365 461.54 
L 488.916515 461.54 
L 488.916515 429.526364 
L 466.100365 429.526364 
z
" style="fill:#2e1e3b;fill-opacity:0.5;stroke:#ffffff;stroke-linejoin:miter;stroke-width:0.678449;"/>
   </g>
   <g id="patch_20">
    <path clip-path="url(#p56ff5bb1ba)" d="M 488.916515 461.54 
L 511.732664 461.54 
L 511.732664 461.54 
L 488.916515 461.54 
z
" style="fill:#2e1e3b;fill-opacity:0.5;stroke:#ffffff;stroke-linejoin:miter;stroke-width:0.678449;"/>
   </g>
   <g id="patch_21">
    <path clip-path="url(#p56ff5bb1ba)" d="M 511.732664 461.54 
L 534.548814 461.54 
L 534.548814 429.526364 
L 511.732664 429.526364 
z
" style="fill:#2e1e3b;fill-opacity:0.5;stroke:#ffffff;stroke-linejoin:miter;stroke-width:0.678449;"/>
   </g>
   <g id="patch_22">
    <path clip-path="url(#p56ff5bb1ba)" d="M 534.548814 461.54 
L 557.364963 461.54 
L 557.364963 461.54 
L 534.548814 461.54 
z
" style="fill:#2e1e3b;fill-opacity:0.5;stroke:#ffffff;stroke-linejoin:miter;stroke-width:0.678449;"/>
   </g>
   <g id="patch_23">
    <path clip-path="url(#p56ff5bb1ba)" d="M 557.364963 461.54 
L 580.181113 461.54 
L 580.181113 461.54 
L 557.364963 461.54 
z
" style="fill:#2e1e3b;fill-opacity:0.5;stroke:#ffffff;stroke-linejoin:miter;stroke-width:0.678449;"/>
   </g>
   <g id="patch_24">
    <path clip-path="url(#p56ff5bb1ba)" d="M 580.181113 461.54 
L 602.997262 461.54 
L 602.997262 461.54 
L 580.181113 461.54 
z
" style="fill:#2e1e3b;fill-opacity:0.5;stroke:#ffffff;stroke-linejoin:miter;stroke-width:0.678449;"/>
   </g>
   <g id="patch_25">
    <path clip-path="url(#p56ff5bb1ba)" d="M 602.997262 461.54 
L 625.813412 461.54 
L 625.813412 461.54 
L 602.997262 461.54 
z
" style="fill:#2e1e3b;fill-opacity:0.5;stroke:#ffffff;stroke-linejoin:miter;stroke-width:0.678449;"/>
   </g>
   <g id="patch_26">
    <path clip-path="url(#p56ff5bb1ba)" d="M 625.813412 461.54 
L 648.629561 461.54 
L 648.629561 461.54 
L 625.813412 461.54 
z
" style="fill:#2e1e3b;fill-opacity:0.5;stroke:#ffffff;stroke-linejoin:miter;stroke-width:0.678449;"/>
   </g>
   <g id="patch_27">
    <path clip-path="url(#p56ff5bb1ba)" d="M 648.629561 461.54 
L 671.445711 461.54 
L 671.445711 429.526364 
L 648.629561 429.526364 
z
" style="fill:#2e1e3b;fill-opacity:0.5;stroke:#ffffff;stroke-linejoin:miter;stroke-width:0.678449;"/>
   </g>
   <g id="patch_28">
    <path clip-path="url(#p56ff5bb1ba)" d="M 671.445711 461.54 
L 694.26186 461.54 
L 694.26186 461.54 
L 671.445711 461.54 
z
" style="fill:#2e1e3b;fill-opacity:0.5;stroke:#ffffff;stroke-linejoin:miter;stroke-width:0.678449;"/>
   </g>
   <g id="patch_29">
    <path clip-path="url(#p56ff5bb1ba)" d="M 694.26186 461.54 
L 717.07801 461.54 
L 717.07801 461.54 
L 694.26186 461.54 
z
" style="fill:#2e1e3b;fill-opacity:0.5;stroke:#ffffff;stroke-linejoin:miter;stroke-width:0.678449;"/>
   </g>
   <g id="patch_30">
    <path clip-path="url(#p56ff5bb1ba)" d="M 717.07801 461.54 
L 739.89416 461.54 
L 739.89416 461.54 
L 717.07801 461.54 
z
" style="fill:#2e1e3b;fill-opacity:0.5;stroke:#ffffff;stroke-linejoin:miter;stroke-width:0.678449;"/>
   </g>
   <g id="patch_31">
    <path clip-path="url(#p56ff5bb1ba)" d="M 739.89416 461.54 
L 762.710309 461.54 
L 762.710309 461.54 
L 739.89416 461.54 
z
" style="fill:#2e1e3b;fill-opacity:0.5;stroke:#ffffff;stroke-linejoin:miter;stroke-width:0.678449;"/>
   </g>
   <g id="patch_32">
    <path clip-path="url(#p56ff5bb1ba)" d="M 762.710309 461.54 
L 785.526459 461.54 
L 785.526459 461.54 
L 762.710309 461.54 
z
" style="fill:#2e1e3b;fill-opacity:0.5;stroke:#ffffff;stroke-linejoin:miter;stroke-width:0.678449;"/>
   </g>
   <g id="patch_33">
    <path clip-path="url(#p56ff5bb1ba)" d="M 785.526459 461.54 
L 808.342608 461.54 
L 808.342608 461.54 
L 785.526459 461.54 
z
" style="fill:#2e1e3b;fill-opacity:0.5;stroke:#ffffff;stroke-linejoin:miter;stroke-width:0.678449;"/>
   </g>
   <g id="patch_34">
    <path clip-path="url(#p56ff5bb1ba)" d="M 808.342608 461.54 
L 831.158758 461.54 
L 831.158758 461.54 
L 808.342608 461.54 
z
" style="fill:#2e1e3b;fill-opacity:0.5;stroke:#ffffff;stroke-linejoin:miter;stroke-width:0.678449;"/>
   </g>
   <g id="patch_35">
    <path clip-path="url(#p56ff5bb1ba)" d="M 831.158758 461.54 
L 853.974907 461.54 
L 853.974907 461.54 
L 831.158758 461.54 
z
" style="fill:#2e1e3b;fill-opacity:0.5;stroke:#ffffff;stroke-linejoin:miter;stroke-width:0.678449;"/>
   </g>
   <g id="patch_36">
    <path clip-path="url(#p56ff5bb1ba)" d="M 853.974907 461.54 
L 876.791057 461.54 
L 876.791057 461.54 
L 853.974907 461.54 
z
" style="fill:#2e1e3b;fill-opacity:0.5;stroke:#ffffff;stroke-linejoin:miter;stroke-width:0.678449;"/>
   </g>
   <g id="patch_37">
    <path clip-path="url(#p56ff5bb1ba)" d="M 876.791057 461.54 
L 899.607206 461.54 
L 899.607206 461.54 
L 876.791057 461.54 
z
" style="fill:#2e1e3b;fill-opacity:0.5;stroke:#ffffff;stroke-linejoin:miter;stroke-width:0.678449;"/>
   </g>
   <g id="patch_38">
    <path clip-path="url(#p56ff5bb1ba)" d="M 899.607206 461.54 
L 922.423356 461.54 
L 922.423356 461.54 
L 899.607206 461.54 
z
" style="fill:#2e1e3b;fill-opacity:0.5;stroke:#ffffff;stroke-linejoin:miter;stroke-width:0.678449;"/>
   </g>
   <g id="patch_39">
    <path clip-path="url(#p56ff5bb1ba)" d="M 922.423356 461.54 
L 945.239505 461.54 
L 945.239505 461.54 
L 922.423356 461.54 
z
" style="fill:#2e1e3b;fill-opacity:0.5;stroke:#ffffff;stroke-linejoin:miter;stroke-width:0.678449;"/>
   </g>
   <g id="patch_40">
    <path clip-path="url(#p56ff5bb1ba)" d="M 945.239505 461.54 
L 968.055655 461.54 
L 968.055655 429.526364 
L 945.239505 429.526364 
z
" style="fill:#2e1e3b;fill-opacity:0.5;stroke:#ffffff;stroke-linejoin:miter;stroke-width:0.678449;"/>
   </g>
   <g id="patch_41">
    <path clip-path="url(#p56ff5bb1ba)" d="M 968.055655 461.54 
L 990.871805 461.54 
L 990.871805 461.54 
L 968.055655 461.54 
z
" style="fill:#2e1e3b;fill-opacity:0.5;stroke:#ffffff;stroke-linejoin:miter;stroke-width:0.678449;"/>
   </g>
   <g id="patch_42">
    <path clip-path="url(#p56ff5bb1ba)" d="M 990.871805 461.54 
L 1013.687954 461.54 
L 1013.687954 429.526364 
L 990.871805 429.526364 
z
" style="fill:#2e1e3b;fill-opacity:0.5;stroke:#ffffff;stroke-linejoin:miter;stroke-width:0.678449;"/>
   </g>
   <g id="LineCollection_1">
    <path clip-path="url(#p56ff5bb1ba)" d="M 1013.687954 461.54 
L 1013.687954 450.9755 
" style="fill:none;stroke:#2e1e3b;"/>
    <path clip-path="url(#p56ff5bb1ba)" d="M 528.844776 461.54 
L 528.844776 450.9755 
" style="fill:none;stroke:#2e1e3b;"/>
    <path clip-path="url(#p56ff5bb1ba)" d="M 446.453125 461.54 
L 446.453125 450.9755 
" style="fill:none;stroke:#2e1e3b;"/>
    <path clip-path="url(#p56ff5bb1ba)" d="M 430.608577 461.54 
L 430.608577 450.9755 
" style="fill:none;stroke:#2e1e3b;"/>
    <path clip-path="url(#p56ff5bb1ba)" d="M 417.932938 461.54 
L 417.932938 450.9755 
" style="fill:none;stroke:#2e1e3b;"/>
    <path clip-path="url(#p56ff5bb1ba)" d="M 411.595119 461.54 
L 411.595119 450.9755 
" style="fill:none;stroke:#2e1e3b;"/>
    <path clip-path="url(#p56ff5bb1ba)" d="M 402.08839 461.54 
L 402.08839 450.9755 
" style="fill:none;stroke:#2e1e3b;"/>
    <path clip-path="url(#p56ff5bb1ba)" d="M 389.412751 461.54 
L 389.412751 450.9755 
" style="fill:none;stroke:#2e1e3b;"/>
    <path clip-path="url(#p56ff5bb1ba)" d="M 386.243842 461.54 
L 386.243842 450.9755 
" style="fill:none;stroke:#2e1e3b;"/>
    <path clip-path="url(#p56ff5bb1ba)" d="M 335.541287 461.54 
L 335.541287 450.9755 
" style="fill:none;stroke:#2e1e3b;"/>
    <path clip-path="url(#p56ff5bb1ba)" d="M 329.203468 461.54 
L 329.203468 450.9755 
" style="fill:none;stroke:#2e1e3b;"/>
    <path clip-path="url(#p56ff5bb1ba)" d="M 319.696739 461.54 
L 319.696739 450.9755 
" style="fill:none;stroke:#2e1e3b;"/>
    <path clip-path="url(#p56ff5bb1ba)" d="M 316.527829 461.54 
L 316.527829 450.9755 
" style="fill:none;stroke:#2e1e3b;"/>
    <path clip-path="url(#p56ff5bb1ba)" d="M 316.527829 461.54 
L 316.527829 450.9755 
" style="fill:none;stroke:#2e1e3b;"/>
    <path clip-path="url(#p56ff5bb1ba)" d="M 310.19001 461.54 
L 310.19001 450.9755 
" style="fill:none;stroke:#2e1e3b;"/>
    <path clip-path="url(#p56ff5bb1ba)" d="M 303.85219 461.54 
L 303.85219 450.9755 
" style="fill:none;stroke:#2e1e3b;"/>
    <path clip-path="url(#p56ff5bb1ba)" d="M 303.85219 461.54 
L 303.85219 450.9755 
" style="fill:none;stroke:#2e1e3b;"/>
    <path clip-path="url(#p56ff5bb1ba)" d="M 300.683281 461.54 
L 300.683281 450.9755 
" style="fill:none;stroke:#2e1e3b;"/>
    <path clip-path="url(#p56ff5bb1ba)" d="M 294.345461 461.54 
L 294.345461 450.9755 
" style="fill:none;stroke:#2e1e3b;"/>
    <path clip-path="url(#p56ff5bb1ba)" d="M 284.838733 461.54 
L 284.838733 450.9755 
" style="fill:none;stroke:#2e1e3b;"/>
    <path clip-path="url(#p56ff5bb1ba)" d="M 284.838733 461.54 
L 284.838733 450.9755 
" style="fill:none;stroke:#2e1e3b;"/>
    <path clip-path="url(#p56ff5bb1ba)" d="M 284.838733 461.54 
L 284.838733 450.9755 
" style="fill:none;stroke:#2e1e3b;"/>
    <path clip-path="url(#p56ff5bb1ba)" d="M 278.500913 461.54 
L 278.500913 450.9755 
" style="fill:none;stroke:#2e1e3b;"/>
    <path clip-path="url(#p56ff5bb1ba)" d="M 278.500913 461.54 
L 278.500913 450.9755 
" style="fill:none;stroke:#2e1e3b;"/>
    <path clip-path="url(#p56ff5bb1ba)" d="M 265.825275 461.54 
L 265.825275 450.9755 
" style="fill:none;stroke:#2e1e3b;"/>
    <path clip-path="url(#p56ff5bb1ba)" d="M 259.487455 461.54 
L 259.487455 450.9755 
" style="fill:none;stroke:#2e1e3b;"/>
    <path clip-path="url(#p56ff5bb1ba)" d="M 253.149636 461.54 
L 253.149636 450.9755 
" style="fill:none;stroke:#2e1e3b;"/>
    <path clip-path="url(#p56ff5bb1ba)" d="M 237.305088 461.54 
L 237.305088 450.9755 
" style="fill:none;stroke:#2e1e3b;"/>
    <path clip-path="url(#p56ff5bb1ba)" d="M 227.798359 461.54 
L 227.798359 450.9755 
" style="fill:none;stroke:#2e1e3b;"/>
    <path clip-path="url(#p56ff5bb1ba)" d="M 215.12272 461.54 
L 215.12272 450.9755 
" style="fill:none;stroke:#2e1e3b;"/>
    <path clip-path="url(#p56ff5bb1ba)" d="M 215.12272 461.54 
L 215.12272 450.9755 
" style="fill:none;stroke:#2e1e3b;"/>
    <path clip-path="url(#p56ff5bb1ba)" d="M 215.12272 461.54 
L 215.12272 450.9755 
" style="fill:none;stroke:#2e1e3b;"/>
    <path clip-path="url(#p56ff5bb1ba)" d="M 211.95381 461.54 
L 211.95381 450.9755 
" style="fill:none;stroke:#2e1e3b;"/>
    <path clip-path="url(#p56ff5bb1ba)" d="M 208.784901 461.54 
L 208.784901 450.9755 
" style="fill:none;stroke:#2e1e3b;"/>
    <path clip-path="url(#p56ff5bb1ba)" d="M 205.615991 461.54 
L 205.615991 450.9755 
" style="fill:none;stroke:#2e1e3b;"/>
    <path clip-path="url(#p56ff5bb1ba)" d="M 205.615991 461.54 
L 205.615991 450.9755 
" style="fill:none;stroke:#2e1e3b;"/>
    <path clip-path="url(#p56ff5bb1ba)" d="M 199.278172 461.54 
L 199.278172 450.9755 
" style="fill:none;stroke:#2e1e3b;"/>
    <path clip-path="url(#p56ff5bb1ba)" d="M 196.109262 461.54 
L 196.109262 450.9755 
" style="fill:none;stroke:#2e1e3b;"/>
    <path clip-path="url(#p56ff5bb1ba)" d="M 192.940352 461.54 
L 192.940352 450.9755 
" style="fill:none;stroke:#2e1e3b;"/>
    <path clip-path="url(#p56ff5bb1ba)" d="M 189.771443 461.54 
L 189.771443 450.9755 
" style="fill:none;stroke:#2e1e3b;"/>
    <path clip-path="url(#p56ff5bb1ba)" d="M 189.771443 461.54 
L 189.771443 450.9755 
" style="fill:none;stroke:#2e1e3b;"/>
    <path clip-path="url(#p56ff5bb1ba)" d="M 186.602533 461.54 
L 186.602533 450.9755 
" style="fill:none;stroke:#2e1e3b;"/>
    <path clip-path="url(#p56ff5bb1ba)" d="M 180.264714 461.54 
L 180.264714 450.9755 
" style="fill:none;stroke:#2e1e3b;"/>
    <path clip-path="url(#p56ff5bb1ba)" d="M 177.095804 461.54 
L 177.095804 450.9755 
" style="fill:none;stroke:#2e1e3b;"/>
    <path clip-path="url(#p56ff5bb1ba)" d="M 173.926894 461.54 
L 173.926894 450.9755 
" style="fill:none;stroke:#2e1e3b;"/>
    <path clip-path="url(#p56ff5bb1ba)" d="M 170.757985 461.54 
L 170.757985 450.9755 
" style="fill:none;stroke:#2e1e3b;"/>
    <path clip-path="url(#p56ff5bb1ba)" d="M 170.757985 461.54 
L 170.757985 450.9755 
" style="fill:none;stroke:#2e1e3b;"/>
    <path clip-path="url(#p56ff5bb1ba)" d="M 170.757985 461.54 
L 170.757985 450.9755 
" style="fill:none;stroke:#2e1e3b;"/>
    <path clip-path="url(#p56ff5bb1ba)" d="M 170.757985 461.54 
L 170.757985 450.9755 
" style="fill:none;stroke:#2e1e3b;"/>
    <path clip-path="url(#p56ff5bb1ba)" d="M 167.589075 461.54 
L 167.589075 450.9755 
" style="fill:none;stroke:#2e1e3b;"/>
    <path clip-path="url(#p56ff5bb1ba)" d="M 167.589075 461.54 
L 167.589075 450.9755 
" style="fill:none;stroke:#2e1e3b;"/>
    <path clip-path="url(#p56ff5bb1ba)" d="M 167.589075 461.54 
L 167.589075 450.9755 
" style="fill:none;stroke:#2e1e3b;"/>
    <path clip-path="url(#p56ff5bb1ba)" d="M 158.082346 461.54 
L 158.082346 450.9755 
" style="fill:none;stroke:#2e1e3b;"/>
    <path clip-path="url(#p56ff5bb1ba)" d="M 158.082346 461.54 
L 158.082346 450.9755 
" style="fill:none;stroke:#2e1e3b;"/>
    <path clip-path="url(#p56ff5bb1ba)" d="M 158.082346 461.54 
L 158.082346 450.9755 
" style="fill:none;stroke:#2e1e3b;"/>
    <path clip-path="url(#p56ff5bb1ba)" d="M 158.082346 461.54 
L 158.082346 450.9755 
" style="fill:none;stroke:#2e1e3b;"/>
    <path clip-path="url(#p56ff5bb1ba)" d="M 158.082346 461.54 
L 158.082346 450.9755 
" style="fill:none;stroke:#2e1e3b;"/>
    <path clip-path="url(#p56ff5bb1ba)" d="M 151.744527 461.54 
L 151.744527 450.9755 
" style="fill:none;stroke:#2e1e3b;"/>
    <path clip-path="url(#p56ff5bb1ba)" d="M 142.237798 461.54 
L 142.237798 450.9755 
" style="fill:none;stroke:#2e1e3b;"/>
    <path clip-path="url(#p56ff5bb1ba)" d="M 139.068888 461.54 
L 139.068888 450.9755 
" style="fill:none;stroke:#2e1e3b;"/>
    <path clip-path="url(#p56ff5bb1ba)" d="M 126.39325 461.54 
L 126.39325 450.9755 
" style="fill:none;stroke:#2e1e3b;"/>
    <path clip-path="url(#p56ff5bb1ba)" d="M 120.05543 461.54 
L 120.05543 450.9755 
" style="fill:none;stroke:#2e1e3b;"/>
    <path clip-path="url(#p56ff5bb1ba)" d="M 120.05543 461.54 
L 120.05543 450.9755 
" style="fill:none;stroke:#2e1e3b;"/>
    <path clip-path="url(#p56ff5bb1ba)" d="M 110.548701 461.54 
L 110.548701 450.9755 
" style="fill:none;stroke:#2e1e3b;"/>
    <path clip-path="url(#p56ff5bb1ba)" d="M 110.548701 461.54 
L 110.548701 450.9755 
" style="fill:none;stroke:#2e1e3b;"/>
    <path clip-path="url(#p56ff5bb1ba)" d="M 110.548701 461.54 
L 110.548701 450.9755 
" style="fill:none;stroke:#2e1e3b;"/>
    <path clip-path="url(#p56ff5bb1ba)" d="M 107.379792 461.54 
L 107.379792 450.9755 
" style="fill:none;stroke:#2e1e3b;"/>
    <path clip-path="url(#p56ff5bb1ba)" d="M 104.210882 461.54 
L 104.210882 450.9755 
" style="fill:none;stroke:#2e1e3b;"/>
    <path clip-path="url(#p56ff5bb1ba)" d="M 101.041972 461.54 
L 101.041972 450.9755 
" style="fill:none;stroke:#2e1e3b;"/>
    <path clip-path="url(#p56ff5bb1ba)" d="M 297.514371 461.54 
L 297.514371 450.9755 
" style="fill:none;stroke:#2e1e3b;"/>
    <path clip-path="url(#p56ff5bb1ba)" d="M 661.938982 461.54 
L 661.938982 450.9755 
" style="fill:none;stroke:#2e1e3b;"/>
    <path clip-path="url(#p56ff5bb1ba)" d="M 189.771443 461.54 
L 189.771443 450.9755 
" style="fill:none;stroke:#2e1e3b;"/>
    <path clip-path="url(#p56ff5bb1ba)" d="M 215.12272 461.54 
L 215.12272 450.9755 
" style="fill:none;stroke:#2e1e3b;"/>
    <path clip-path="url(#p56ff5bb1ba)" d="M 135.899979 461.54 
L 135.899979 450.9755 
" style="fill:none;stroke:#2e1e3b;"/>
    <path clip-path="url(#p56ff5bb1ba)" d="M 161.251256 461.54 
L 161.251256 450.9755 
" style="fill:none;stroke:#2e1e3b;"/>
    <path clip-path="url(#p56ff5bb1ba)" d="M 215.12272 461.54 
L 215.12272 450.9755 
" style="fill:none;stroke:#2e1e3b;"/>
    <path clip-path="url(#p56ff5bb1ba)" d="M 316.527829 461.54 
L 316.527829 450.9755 
" style="fill:none;stroke:#2e1e3b;"/>
    <path clip-path="url(#p56ff5bb1ba)" d="M 189.771443 461.54 
L 189.771443 450.9755 
" style="fill:none;stroke:#2e1e3b;"/>
    <path clip-path="url(#p56ff5bb1ba)" d="M 278.500913 461.54 
L 278.500913 450.9755 
" style="fill:none;stroke:#2e1e3b;"/>
    <path clip-path="url(#p56ff5bb1ba)" d="M 474.973312 461.54 
L 474.973312 450.9755 
" style="fill:none;stroke:#2e1e3b;"/>
    <path clip-path="url(#p56ff5bb1ba)" d="M 139.068888 461.54 
L 139.068888 450.9755 
" style="fill:none;stroke:#2e1e3b;"/>
    <path clip-path="url(#p56ff5bb1ba)" d="M 950.309761 461.54 
L 950.309761 450.9755 
" style="fill:none;stroke:#2e1e3b;"/>
    <path clip-path="url(#p56ff5bb1ba)" d="M 120.05543 461.54 
L 120.05543 450.9755 
" style="fill:none;stroke:#2e1e3b;"/>
    <path clip-path="url(#p56ff5bb1ba)" d="M 123.22434 461.54 
L 123.22434 450.9755 
" style="fill:none;stroke:#2e1e3b;"/>
   </g>
   <g id="line2d_1">
    <path clip-path="url(#p56ff5bb1ba)" d="M 101.041972 326.247407 
L 110.214294 311.382571 
L 114.800454 304.16464 
L 119.386615 297.158268 
L 123.972776 290.413749 
L 128.558937 283.979549 
L 133.145097 277.90154 
L 137.731258 272.222276 
L 142.317419 266.980306 
L 146.903579 262.20956 
L 151.48974 257.938811 
L 156.075901 254.191237 
L 160.662062 250.984083 
L 165.248222 248.328451 
L 169.834383 246.229211 
L 174.420544 244.685036 
L 179.006704 243.68858 
L 183.592865 243.226766 
L 188.179026 243.281212 
L 192.765187 243.828745 
L 197.351347 244.842031 
L 201.937508 246.290261 
L 206.523669 248.139909 
L 211.109829 250.35552 
L 215.69599 252.900504 
L 220.282151 255.737926 
L 224.868312 258.831256 
L 229.454472 262.145059 
L 234.040633 265.645617 
L 243.212954 273.083714 
L 252.385276 280.927167 
L 266.143758 293.095815 
L 312.005365 334.056118 
L 325.763847 346.031279 
L 334.936169 353.820569 
L 344.10849 361.386833 
L 353.280811 368.667093 
L 362.453133 375.602356 
L 371.625454 382.14519 
L 380.797776 388.265562 
L 389.970097 393.953888 
L 399.142419 399.220896 
L 408.31474 404.094552 
L 417.487061 408.614838 
L 426.659383 412.827452 
L 435.831704 416.777581 
L 445.004026 420.504703 
L 454.176347 424.039068 
L 463.348669 427.400095 
L 472.52099 430.596571 
L 481.693311 433.628253 
L 490.865633 436.488322 
L 500.037954 439.166119 
L 509.210276 441.649722 
L 518.382597 443.928027 
L 527.554919 445.992242 
L 536.72724 447.836804 
L 545.899561 449.459868 
L 555.071883 450.86353 
L 564.244204 452.053932 
L 573.416526 453.041339 
L 582.588847 453.840173 
L 591.761169 454.468963 
L 605.519651 455.143181 
L 619.278133 455.574314 
L 642.208936 456.015045 
L 669.725901 456.567876 
L 688.070543 457.133701 
L 711.001347 458.060657 
L 752.276793 459.794574 
L 770.621436 460.349353 
L 788.966079 460.683972 
L 807.310722 460.772752 
L 825.655365 460.600699 
L 844.000008 460.156093 
L 862.344651 459.436594 
L 880.689293 458.46593 
L 903.620097 457.006514 
L 935.723222 454.956338 
L 949.481704 454.264834 
L 963.240186 453.778781 
L 976.998668 453.543415 
L 990.757151 453.58111 
L 1004.515633 453.888293 
L 1013.687954 454.229423 
L 1013.687954 454.229423 
" style="fill:none;stroke:#2e1e3b;stroke-linecap:round;stroke-width:1.5;"/>
   </g>
   <g id="patch_43">
    <path d="M 55.409673 461.54 
L 55.409673 38.96 
" style="fill:none;stroke:#cccccc;stroke-linecap:square;stroke-linejoin:miter;stroke-width:1.25;"/>
   </g>
   <g id="patch_44">
    <path d="M 55.409673 461.54 
L 1059.320253 461.54 
" style="fill:none;stroke:#cccccc;stroke-linecap:square;stroke-linejoin:miter;stroke-width:1.25;"/>
   </g>
   <g id="text_15">
    <!-- Num. of users who tested the app -->
    <defs>
     <path d="M 9.8125 72.90625 
L 23.09375 72.90625 
L 55.421875 11.921875 
L 55.421875 72.90625 
L 64.984375 72.90625 
L 64.984375 0 
L 51.703125 0 
L 19.390625 60.984375 
L 19.390625 0 
L 9.8125 0 
z
" id="DejaVuSans-78"/>
     <path d="M 8.5 21.578125 
L 8.5 54.6875 
L 17.484375 54.6875 
L 17.484375 21.921875 
Q 17.484375 14.15625 20.5 10.265625 
Q 23.53125 6.390625 29.59375 6.390625 
Q 36.859375 6.390625 41.078125 11.03125 
Q 45.3125 15.671875 45.3125 23.6875 
L 45.3125 54.6875 
L 54.296875 54.6875 
L 54.296875 0 
L 45.3125 0 
L 45.3125 8.40625 
Q 42.046875 3.421875 37.71875 1 
Q 33.40625 -1.421875 27.6875 -1.421875 
Q 18.265625 -1.421875 13.375 4.4375 
Q 8.5 10.296875 8.5 21.578125 
z
M 31.109375 56 
z
" id="DejaVuSans-117"/>
     <path d="M 52 44.1875 
Q 55.375 50.25 60.0625 53.125 
Q 64.75 56 71.09375 56 
Q 79.640625 56 84.28125 50.015625 
Q 88.921875 44.046875 88.921875 33.015625 
L 88.921875 0 
L 79.890625 0 
L 79.890625 32.71875 
Q 79.890625 40.578125 77.09375 44.375 
Q 74.3125 48.1875 68.609375 48.1875 
Q 61.625 48.1875 57.5625 43.546875 
Q 53.515625 38.921875 53.515625 30.90625 
L 53.515625 0 
L 44.484375 0 
L 44.484375 32.71875 
Q 44.484375 40.625 41.703125 44.40625 
Q 38.921875 48.1875 33.109375 48.1875 
Q 26.21875 48.1875 22.15625 43.53125 
Q 18.109375 38.875 18.109375 30.90625 
L 18.109375 0 
L 9.078125 0 
L 9.078125 54.6875 
L 18.109375 54.6875 
L 18.109375 46.1875 
Q 21.1875 51.21875 25.484375 53.609375 
Q 29.78125 56 35.6875 56 
Q 41.65625 56 45.828125 52.96875 
Q 50 49.953125 52 44.1875 
z
" id="DejaVuSans-109"/>
     <path d="M 10.6875 12.40625 
L 21 12.40625 
L 21 0 
L 10.6875 0 
z
" id="DejaVuSans-46"/>
     <path id="DejaVuSans-32"/>
     <path d="M 30.609375 48.390625 
Q 23.390625 48.390625 19.1875 42.75 
Q 14.984375 37.109375 14.984375 27.296875 
Q 14.984375 17.484375 19.15625 11.84375 
Q 23.34375 6.203125 30.609375 6.203125 
Q 37.796875 6.203125 41.984375 11.859375 
Q 46.1875 17.53125 46.1875 27.296875 
Q 46.1875 37.015625 41.984375 42.703125 
Q 37.796875 48.390625 30.609375 48.390625 
z
M 30.609375 56 
Q 42.328125 56 49.015625 48.375 
Q 55.71875 40.765625 55.71875 27.296875 
Q 55.71875 13.875 49.015625 6.21875 
Q 42.328125 -1.421875 30.609375 -1.421875 
Q 18.84375 -1.421875 12.171875 6.21875 
Q 5.515625 13.875 5.515625 27.296875 
Q 5.515625 40.765625 12.171875 48.375 
Q 18.84375 56 30.609375 56 
z
" id="DejaVuSans-111"/>
     <path d="M 37.109375 75.984375 
L 37.109375 68.5 
L 28.515625 68.5 
Q 23.6875 68.5 21.796875 66.546875 
Q 19.921875 64.59375 19.921875 59.515625 
L 19.921875 54.6875 
L 34.71875 54.6875 
L 34.71875 47.703125 
L 19.921875 47.703125 
L 19.921875 0 
L 10.890625 0 
L 10.890625 47.703125 
L 2.296875 47.703125 
L 2.296875 54.6875 
L 10.890625 54.6875 
L 10.890625 58.5 
Q 10.890625 67.625 15.140625 71.796875 
Q 19.390625 75.984375 28.609375 75.984375 
z
" id="DejaVuSans-102"/>
     <path d="M 44.28125 53.078125 
L 44.28125 44.578125 
Q 40.484375 46.53125 36.375 47.5 
Q 32.28125 48.484375 27.875 48.484375 
Q 21.1875 48.484375 17.84375 46.4375 
Q 14.5 44.390625 14.5 40.28125 
Q 14.5 37.15625 16.890625 35.375 
Q 19.28125 33.59375 26.515625 31.984375 
L 29.59375 31.296875 
Q 39.15625 29.25 43.1875 25.515625 
Q 47.21875 21.78125 47.21875 15.09375 
Q 47.21875 7.46875 41.1875 3.015625 
Q 35.15625 -1.421875 24.609375 -1.421875 
Q 20.21875 -1.421875 15.453125 -0.5625 
Q 10.6875 0.296875 5.421875 2 
L 5.421875 11.28125 
Q 10.40625 8.6875 15.234375 7.390625 
Q 20.0625 6.109375 24.8125 6.109375 
Q 31.15625 6.109375 34.5625 8.28125 
Q 37.984375 10.453125 37.984375 14.40625 
Q 37.984375 18.0625 35.515625 20.015625 
Q 33.0625 21.96875 24.703125 23.78125 
L 21.578125 24.515625 
Q 13.234375 26.265625 9.515625 29.90625 
Q 5.8125 33.546875 5.8125 39.890625 
Q 5.8125 47.609375 11.28125 51.796875 
Q 16.75 56 26.8125 56 
Q 31.78125 56 36.171875 55.265625 
Q 40.578125 54.546875 44.28125 53.078125 
z
" id="DejaVuSans-115"/>
     <path d="M 56.203125 29.59375 
L 56.203125 25.203125 
L 14.890625 25.203125 
Q 15.484375 15.921875 20.484375 11.0625 
Q 25.484375 6.203125 34.421875 6.203125 
Q 39.59375 6.203125 44.453125 7.46875 
Q 49.3125 8.734375 54.109375 11.28125 
L 54.109375 2.78125 
Q 49.265625 0.734375 44.1875 -0.34375 
Q 39.109375 -1.421875 33.890625 -1.421875 
Q 20.796875 -1.421875 13.15625 6.1875 
Q 5.515625 13.8125 5.515625 26.8125 
Q 5.515625 40.234375 12.765625 48.109375 
Q 20.015625 56 32.328125 56 
Q 43.359375 56 49.78125 48.890625 
Q 56.203125 41.796875 56.203125 29.59375 
z
M 47.21875 32.234375 
Q 47.125 39.59375 43.09375 43.984375 
Q 39.0625 48.390625 32.421875 48.390625 
Q 24.90625 48.390625 20.390625 44.140625 
Q 15.875 39.890625 15.1875 32.171875 
z
" id="DejaVuSans-101"/>
     <path d="M 41.109375 46.296875 
Q 39.59375 47.171875 37.8125 47.578125 
Q 36.03125 48 33.890625 48 
Q 26.265625 48 22.1875 43.046875 
Q 18.109375 38.09375 18.109375 28.8125 
L 18.109375 0 
L 9.078125 0 
L 9.078125 54.6875 
L 18.109375 54.6875 
L 18.109375 46.1875 
Q 20.953125 51.171875 25.484375 53.578125 
Q 30.03125 56 36.53125 56 
Q 37.453125 56 38.578125 55.875 
Q 39.703125 55.765625 41.0625 55.515625 
z
" id="DejaVuSans-114"/>
     <path d="M 4.203125 54.6875 
L 13.1875 54.6875 
L 24.421875 12.015625 
L 35.59375 54.6875 
L 46.1875 54.6875 
L 57.421875 12.015625 
L 68.609375 54.6875 
L 77.59375 54.6875 
L 63.28125 0 
L 52.6875 0 
L 40.921875 44.828125 
L 29.109375 0 
L 18.5 0 
z
" id="DejaVuSans-119"/>
     <path d="M 54.890625 33.015625 
L 54.890625 0 
L 45.90625 0 
L 45.90625 32.71875 
Q 45.90625 40.484375 42.875 44.328125 
Q 39.84375 48.1875 33.796875 48.1875 
Q 26.515625 48.1875 22.3125 43.546875 
Q 18.109375 38.921875 18.109375 30.90625 
L 18.109375 0 
L 9.078125 0 
L 9.078125 75.984375 
L 18.109375 75.984375 
L 18.109375 46.1875 
Q 21.34375 51.125 25.703125 53.5625 
Q 30.078125 56 35.796875 56 
Q 45.21875 56 50.046875 50.171875 
Q 54.890625 44.34375 54.890625 33.015625 
z
" id="DejaVuSans-104"/>
     <path d="M 18.3125 70.21875 
L 18.3125 54.6875 
L 36.8125 54.6875 
L 36.8125 47.703125 
L 18.3125 47.703125 
L 18.3125 18.015625 
Q 18.3125 11.328125 20.140625 9.421875 
Q 21.96875 7.515625 27.59375 7.515625 
L 36.8125 7.515625 
L 36.8125 0 
L 27.59375 0 
Q 17.1875 0 13.234375 3.875 
Q 9.28125 7.765625 9.28125 18.015625 
L 9.28125 47.703125 
L 2.6875 47.703125 
L 2.6875 54.6875 
L 9.28125 54.6875 
L 9.28125 70.21875 
z
" id="DejaVuSans-116"/>
     <path d="M 45.40625 46.390625 
L 45.40625 75.984375 
L 54.390625 75.984375 
L 54.390625 0 
L 45.40625 0 
L 45.40625 8.203125 
Q 42.578125 3.328125 38.25 0.953125 
Q 33.9375 -1.421875 27.875 -1.421875 
Q 17.96875 -1.421875 11.734375 6.484375 
Q 5.515625 14.40625 5.515625 27.296875 
Q 5.515625 40.1875 11.734375 48.09375 
Q 17.96875 56 27.875 56 
Q 33.9375 56 38.25 53.625 
Q 42.578125 51.265625 45.40625 46.390625 
z
M 14.796875 27.296875 
Q 14.796875 17.390625 18.875 11.75 
Q 22.953125 6.109375 30.078125 6.109375 
Q 37.203125 6.109375 41.296875 11.75 
Q 45.40625 17.390625 45.40625 27.296875 
Q 45.40625 37.203125 41.296875 42.84375 
Q 37.203125 48.484375 30.078125 48.484375 
Q 22.953125 48.484375 18.875 42.84375 
Q 14.796875 37.203125 14.796875 27.296875 
z
" id="DejaVuSans-100"/>
     <path d="M 34.28125 27.484375 
Q 23.390625 27.484375 19.1875 25 
Q 14.984375 22.515625 14.984375 16.5 
Q 14.984375 11.71875 18.140625 8.90625 
Q 21.296875 6.109375 26.703125 6.109375 
Q 34.1875 6.109375 38.703125 11.40625 
Q 43.21875 16.703125 43.21875 25.484375 
L 43.21875 27.484375 
z
M 52.203125 31.203125 
L 52.203125 0 
L 43.21875 0 
L 43.21875 8.296875 
Q 40.140625 3.328125 35.546875 0.953125 
Q 30.953125 -1.421875 24.3125 -1.421875 
Q 15.921875 -1.421875 10.953125 3.296875 
Q 6 8.015625 6 15.921875 
Q 6 25.140625 12.171875 29.828125 
Q 18.359375 34.515625 30.609375 34.515625 
L 43.21875 34.515625 
L 43.21875 35.40625 
Q 43.21875 41.609375 39.140625 45 
Q 35.0625 48.390625 27.6875 48.390625 
Q 23 48.390625 18.546875 47.265625 
Q 14.109375 46.140625 10.015625 43.890625 
L 10.015625 52.203125 
Q 14.9375 54.109375 19.578125 55.046875 
Q 24.21875 56 28.609375 56 
Q 40.484375 56 46.34375 49.84375 
Q 52.203125 43.703125 52.203125 31.203125 
z
" id="DejaVuSans-97"/>
     <path d="M 18.109375 8.203125 
L 18.109375 -20.796875 
L 9.078125 -20.796875 
L 9.078125 54.6875 
L 18.109375 54.6875 
L 18.109375 46.390625 
Q 20.953125 51.265625 25.265625 53.625 
Q 29.59375 56 35.59375 56 
Q 45.5625 56 51.78125 48.09375 
Q 58.015625 40.1875 58.015625 27.296875 
Q 58.015625 14.40625 51.78125 6.484375 
Q 45.5625 -1.421875 35.59375 -1.421875 
Q 29.59375 -1.421875 25.265625 0.953125 
Q 20.953125 3.328125 18.109375 8.203125 
z
M 48.6875 27.296875 
Q 48.6875 37.203125 44.609375 42.84375 
Q 40.53125 48.484375 33.40625 48.484375 
Q 26.265625 48.484375 22.1875 42.84375 
Q 18.109375 37.203125 18.109375 27.296875 
Q 18.109375 17.390625 22.1875 11.75 
Q 26.265625 6.109375 33.40625 6.109375 
Q 40.53125 6.109375 44.609375 11.75 
Q 48.6875 17.390625 48.6875 27.296875 
z
" id="DejaVuSans-112"/>
    </defs>
    <g style="fill:#262626;" transform="translate(336.312151 32.96)scale(0.26 -0.26)">
     <use xlink:href="#DejaVuSans-78"/>
     <use x="74.804688" xlink:href="#DejaVuSans-117"/>
     <use x="138.183594" xlink:href="#DejaVuSans-109"/>
     <use x="235.595703" xlink:href="#DejaVuSans-46"/>
     <use x="267.382812" xlink:href="#DejaVuSans-32"/>
     <use x="299.169922" xlink:href="#DejaVuSans-111"/>
     <use x="360.351562" xlink:href="#DejaVuSans-102"/>
     <use x="395.556641" xlink:href="#DejaVuSans-32"/>
     <use x="427.34375" xlink:href="#DejaVuSans-117"/>
     <use x="490.722656" xlink:href="#DejaVuSans-115"/>
     <use x="542.822266" xlink:href="#DejaVuSans-101"/>
     <use x="604.345703" xlink:href="#DejaVuSans-114"/>
     <use x="645.458984" xlink:href="#DejaVuSans-115"/>
     <use x="697.558594" xlink:href="#DejaVuSans-32"/>
     <use x="729.345703" xlink:href="#DejaVuSans-119"/>
     <use x="811.132812" xlink:href="#DejaVuSans-104"/>
     <use x="874.511719" xlink:href="#DejaVuSans-111"/>
     <use x="935.693359" xlink:href="#DejaVuSans-32"/>
     <use x="967.480469" xlink:href="#DejaVuSans-116"/>
     <use x="1006.689453" xlink:href="#DejaVuSans-101"/>
     <use x="1068.212891" xlink:href="#DejaVuSans-115"/>
     <use x="1120.3125" xlink:href="#DejaVuSans-116"/>
     <use x="1159.521484" xlink:href="#DejaVuSans-101"/>
     <use x="1221.044922" xlink:href="#DejaVuSans-100"/>
     <use x="1284.521484" xlink:href="#DejaVuSans-32"/>
     <use x="1316.308594" xlink:href="#DejaVuSans-116"/>
     <use x="1355.517578" xlink:href="#DejaVuSans-104"/>
     <use x="1418.896484" xlink:href="#DejaVuSans-101"/>
     <use x="1480.419922" xlink:href="#DejaVuSans-32"/>
     <use x="1512.207031" xlink:href="#DejaVuSans-97"/>
     <use x="1573.486328" xlink:href="#DejaVuSans-112"/>
     <use x="1636.962891" xlink:href="#DejaVuSans-112"/>
    </g>
   </g>
  </g>
 </g>
 <defs>
  <clipPath id="p56ff5bb1ba">
   <rect height="422.58" width="1003.91058" x="55.409673" y="38.96"/>
  </clipPath>
 </defs>
</svg>
