<?xml version="1.0" encoding="utf-8" standalone="no"?>
<!DOCTYPE svg PUBLIC "-//W3C//DTD SVG 1.1//EN"
  "http://www.w3.org/Graphics/SVG/1.1/DTD/svg11.dtd">
<svg xmlns:xlink="http://www.w3.org/1999/xlink" width="1080pt" height="504pt" viewBox="0 0 1080 504" xmlns="http://www.w3.org/2000/svg" version="1.1">
 <metadata>
  <rdf:RDF xmlns:dc="http://purl.org/dc/elements/1.1/" xmlns:cc="http://creativecommons.org/ns#" xmlns:rdf="http://www.w3.org/1999/02/22-rdf-syntax-ns#">
   <cc:Work>
    <dc:type rdf:resource="http://purl.org/dc/dcmitype/StillImage"/>
    <dc:date>2023-11-05T22:13:11.642503</dc:date>
    <dc:format>image/svg+xml</dc:format>
    <dc:creator>
     <cc:Agent>
      <dc:title>Matplotlib v3.7.1, https://matplotlib.org/</dc:title>
     </cc:Agent>
    </dc:creator>
   </cc:Work>
  </rdf:RDF>
 </metadata>
 <defs>
  <style type="text/css">*{stroke-linejoin: round; stroke-linecap: butt}</style>
 </defs>
 <g id="figure_1">
  <g id="patch_1">
   <path d="M 0 504 
L 1080 504 
L 1080 0 
L 0 0 
z
" style="fill: #ffffff"/>
  </g>
  <g id="axes_1">
   <g id="patch_2">
    <path d="M 52.571168 461.38 
L 1061.949502 461.38 
L 1061.949502 37.68 
L 52.571168 37.68 
z
" style="fill: #ffffff"/>
   </g>
   <g id="matplotlib.axis_1">
    <g id="xtick_1">
     <g id="text_1">
      <!-- 0 -->
      <g style="fill: #262626" transform="translate(86.314083 485.72244) scale(0.20736 -0.20736)">
       <defs>
        <path id="ArialMT-30" d="M 266 2259 
Q 266 3072 433 3567 
Q 600 4063 929 4331 
Q 1259 4600 1759 4600 
Q 2128 4600 2406 4451 
Q 2684 4303 2865 4023 
Q 3047 3744 3150 3342 
Q 3253 2941 3253 2259 
Q 3253 1453 3087 958 
Q 2922 463 2592 192 
Q 2263 -78 1759 -78 
Q 1097 -78 719 397 
Q 266 969 266 2259 
z
M 844 2259 
Q 844 1131 1108 757 
Q 1372 384 1759 384 
Q 2147 384 2411 759 
Q 2675 1134 2675 2259 
Q 2675 3391 2411 3762 
Q 2147 4134 1753 4134 
Q 1366 4134 1134 3806 
Q 844 3388 844 2259 
z
" transform="scale(0.015625)"/>
       </defs>
       <use xlink:href="#ArialMT-30"/>
      </g>
     </g>
    </g>
    <g id="xtick_2">
     <g id="text_2">
      <!-- 50 -->
      <g style="fill: #262626" transform="translate(239.856952 485.72244) scale(0.20736 -0.20736)">
       <defs>
        <path id="ArialMT-35" d="M 266 1200 
L 856 1250 
Q 922 819 1161 601 
Q 1400 384 1738 384 
Q 2144 384 2425 690 
Q 2706 997 2706 1503 
Q 2706 1984 2436 2262 
Q 2166 2541 1728 2541 
Q 1456 2541 1237 2417 
Q 1019 2294 894 2097 
L 366 2166 
L 809 4519 
L 3088 4519 
L 3088 3981 
L 1259 3981 
L 1013 2750 
Q 1425 3038 1878 3038 
Q 2478 3038 2890 2622 
Q 3303 2206 3303 1553 
Q 3303 931 2941 478 
Q 2500 -78 1738 -78 
Q 1113 -78 717 272 
Q 322 622 266 1200 
z
" transform="scale(0.015625)"/>
       </defs>
       <use xlink:href="#ArialMT-35"/>
       <use xlink:href="#ArialMT-30" x="55.615234"/>
      </g>
     </g>
    </g>
    <g id="xtick_3">
     <g id="text_3">
      <!-- 100 -->
      <g style="fill: #262626" transform="translate(393.399822 485.72244) scale(0.20736 -0.20736)">
       <defs>
        <path id="ArialMT-31" d="M 2384 0 
L 1822 0 
L 1822 3584 
Q 1619 3391 1289 3197 
Q 959 3003 697 2906 
L 697 3450 
Q 1169 3672 1522 3987 
Q 1875 4303 2022 4600 
L 2384 4600 
L 2384 0 
z
" transform="scale(0.015625)"/>
       </defs>
       <use xlink:href="#ArialMT-31"/>
       <use xlink:href="#ArialMT-30" x="55.615234"/>
       <use xlink:href="#ArialMT-30" x="111.230469"/>
      </g>
     </g>
    </g>
    <g id="xtick_4">
     <g id="text_4">
      <!-- 150 -->
      <g style="fill: #262626" transform="translate(552.708271 485.72244) scale(0.20736 -0.20736)">
       <use xlink:href="#ArialMT-31"/>
       <use xlink:href="#ArialMT-35" x="55.615234"/>
       <use xlink:href="#ArialMT-30" x="111.230469"/>
      </g>
     </g>
    </g>
    <g id="xtick_5">
     <g id="text_5">
      <!-- 200 -->
      <g style="fill: #262626" transform="translate(712.01672 485.72244) scale(0.20736 -0.20736)">
       <defs>
        <path id="ArialMT-32" d="M 3222 541 
L 3222 0 
L 194 0 
Q 188 203 259 391 
Q 375 700 629 1000 
Q 884 1300 1366 1694 
Q 2113 2306 2375 2664 
Q 2638 3022 2638 3341 
Q 2638 3675 2398 3904 
Q 2159 4134 1775 4134 
Q 1369 4134 1125 3890 
Q 881 3647 878 3216 
L 300 3275 
Q 359 3922 746 4261 
Q 1134 4600 1788 4600 
Q 2447 4600 2831 4234 
Q 3216 3869 3216 3328 
Q 3216 3053 3103 2787 
Q 2991 2522 2730 2228 
Q 2469 1934 1863 1422 
Q 1356 997 1212 845 
Q 1069 694 975 541 
L 3222 541 
z
" transform="scale(0.015625)"/>
       </defs>
       <use xlink:href="#ArialMT-32"/>
       <use xlink:href="#ArialMT-30" x="55.615234"/>
       <use xlink:href="#ArialMT-30" x="111.230469"/>
      </g>
     </g>
    </g>
    <g id="xtick_6">
     <g id="text_6">
      <!-- 250 -->
      <g style="fill: #262626" transform="translate(871.325169 485.72244) scale(0.20736 -0.20736)">
       <use xlink:href="#ArialMT-32"/>
       <use xlink:href="#ArialMT-35" x="55.615234"/>
       <use xlink:href="#ArialMT-30" x="111.230469"/>
      </g>
     </g>
    </g>
    <g id="xtick_7">
     <g id="text_7">
      <!-- 300 -->
      <g style="fill: #262626" transform="translate(1030.633619 485.72244) scale(0.20736 -0.20736)">
       <defs>
        <path id="ArialMT-33" d="M 269 1209 
L 831 1284 
Q 928 806 1161 595 
Q 1394 384 1728 384 
Q 2125 384 2398 659 
Q 2672 934 2672 1341 
Q 2672 1728 2419 1979 
Q 2166 2231 1775 2231 
Q 1616 2231 1378 2169 
L 1441 2663 
Q 1497 2656 1531 2656 
Q 1891 2656 2178 2843 
Q 2466 3031 2466 3422 
Q 2466 3731 2256 3934 
Q 2047 4138 1716 4138 
Q 1388 4138 1169 3931 
Q 950 3725 888 3313 
L 325 3413 
Q 428 3978 793 4289 
Q 1159 4600 1703 4600 
Q 2078 4600 2393 4439 
Q 2709 4278 2876 4000 
Q 3044 3722 3044 3409 
Q 3044 3113 2884 2869 
Q 2725 2625 2413 2481 
Q 2819 2388 3044 2092 
Q 3269 1797 3269 1353 
Q 3269 753 2831 336 
Q 2394 -81 1725 -81 
Q 1122 -81 723 278 
Q 325 638 269 1209 
z
" transform="scale(0.015625)"/>
       </defs>
       <use xlink:href="#ArialMT-33"/>
       <use xlink:href="#ArialMT-30" x="55.615234"/>
       <use xlink:href="#ArialMT-30" x="111.230469"/>
      </g>
     </g>
    </g>
   </g>
   <g id="matplotlib.axis_2">
    <g id="ytick_1">
     <g id="text_8">
      <!-- 0 -->
      <g style="fill: #262626" transform="translate(31.02425 472.57829) rotate(-30) scale(0.20736 -0.20736)">
       <use xlink:href="#ArialMT-30"/>
      </g>
     </g>
    </g>
    <g id="ytick_2">
     <g id="text_9">
      <!-- 2 -->
      <g style="fill: #262626" transform="translate(31.02425 408.38132) rotate(-30) scale(0.20736 -0.20736)">
       <use xlink:href="#ArialMT-32"/>
      </g>
     </g>
    </g>
    <g id="ytick_3">
     <g id="text_10">
      <!-- 4 -->
      <g style="fill: #262626" transform="translate(31.02425 344.184351) rotate(-30) scale(0.20736 -0.20736)">
       <defs>
        <path id="ArialMT-34" d="M 2069 0 
L 2069 1097 
L 81 1097 
L 81 1613 
L 2172 4581 
L 2631 4581 
L 2631 1613 
L 3250 1613 
L 3250 1097 
L 2631 1097 
L 2631 0 
L 2069 0 
z
M 2069 1613 
L 2069 3678 
L 634 1613 
L 2069 1613 
z
" transform="scale(0.015625)"/>
       </defs>
       <use xlink:href="#ArialMT-34"/>
      </g>
     </g>
    </g>
    <g id="ytick_4">
     <g id="text_11">
      <!-- 6 -->
      <g style="fill: #262626" transform="translate(31.02425 279.987381) rotate(-30) scale(0.20736 -0.20736)">
       <defs>
        <path id="ArialMT-36" d="M 3184 3459 
L 2625 3416 
Q 2550 3747 2413 3897 
Q 2184 4138 1850 4138 
Q 1581 4138 1378 3988 
Q 1113 3794 959 3422 
Q 806 3050 800 2363 
Q 1003 2672 1297 2822 
Q 1591 2972 1913 2972 
Q 2475 2972 2870 2558 
Q 3266 2144 3266 1488 
Q 3266 1056 3080 686 
Q 2894 316 2569 119 
Q 2244 -78 1831 -78 
Q 1128 -78 684 439 
Q 241 956 241 2144 
Q 241 3472 731 4075 
Q 1159 4600 1884 4600 
Q 2425 4600 2770 4297 
Q 3116 3994 3184 3459 
z
M 888 1484 
Q 888 1194 1011 928 
Q 1134 663 1356 523 
Q 1578 384 1822 384 
Q 2178 384 2434 671 
Q 2691 959 2691 1453 
Q 2691 1928 2437 2201 
Q 2184 2475 1800 2475 
Q 1419 2475 1153 2201 
Q 888 1928 888 1484 
z
" transform="scale(0.015625)"/>
       </defs>
       <use xlink:href="#ArialMT-36"/>
      </g>
     </g>
    </g>
    <g id="ytick_5">
     <g id="text_12">
      <!-- 8 -->
      <g style="fill: #262626" transform="translate(31.02425 215.790411) rotate(-30) scale(0.20736 -0.20736)">
       <defs>
        <path id="ArialMT-38" d="M 1131 2484 
Q 781 2613 612 2850 
Q 444 3088 444 3419 
Q 444 3919 803 4259 
Q 1163 4600 1759 4600 
Q 2359 4600 2725 4251 
Q 3091 3903 3091 3403 
Q 3091 3084 2923 2848 
Q 2756 2613 2416 2484 
Q 2838 2347 3058 2040 
Q 3278 1734 3278 1309 
Q 3278 722 2862 322 
Q 2447 -78 1769 -78 
Q 1091 -78 675 323 
Q 259 725 259 1325 
Q 259 1772 486 2073 
Q 713 2375 1131 2484 
z
M 1019 3438 
Q 1019 3113 1228 2906 
Q 1438 2700 1772 2700 
Q 2097 2700 2305 2904 
Q 2513 3109 2513 3406 
Q 2513 3716 2298 3927 
Q 2084 4138 1766 4138 
Q 1444 4138 1231 3931 
Q 1019 3725 1019 3438 
z
M 838 1322 
Q 838 1081 952 856 
Q 1066 631 1291 507 
Q 1516 384 1775 384 
Q 2178 384 2440 643 
Q 2703 903 2703 1303 
Q 2703 1709 2433 1975 
Q 2163 2241 1756 2241 
Q 1359 2241 1098 1978 
Q 838 1716 838 1322 
z
" transform="scale(0.015625)"/>
       </defs>
       <use xlink:href="#ArialMT-38"/>
      </g>
     </g>
    </g>
    <g id="ytick_6">
     <g id="text_13">
      <!-- 10 -->
      <g style="fill: #262626" transform="translate(21.037973 157.359022) rotate(-30) scale(0.20736 -0.20736)">
       <use xlink:href="#ArialMT-31"/>
       <use xlink:href="#ArialMT-30" x="55.615234"/>
      </g>
     </g>
    </g>
    <g id="ytick_7">
     <g id="text_14">
      <!-- 12 -->
      <g style="fill: #262626" transform="translate(21.037973 93.162052) rotate(-30) scale(0.20736 -0.20736)">
       <use xlink:href="#ArialMT-31"/>
       <use xlink:href="#ArialMT-32" x="55.615234"/>
      </g>
     </g>
    </g>
   </g>
   <g id="patch_3">
    <path d="M 98.452001 461.38 
L 121.392418 461.38 
L 121.392418 140.395152 
L 98.452001 140.395152 
z
" clip-path="url(#p1b0eb43227)" style="fill: #2e1e3b; fill-opacity: 0.5; stroke: #ffffff; stroke-width: 0.685318; stroke-linejoin: miter"/>
   </g>
   <g id="patch_4">
    <path d="M 121.392418 461.38 
L 144.332834 461.38 
L 144.332834 300.887576 
L 121.392418 300.887576 
z
" clip-path="url(#p1b0eb43227)" style="fill: #2e1e3b; fill-opacity: 0.5; stroke: #ffffff; stroke-width: 0.685318; stroke-linejoin: miter"/>
   </g>
   <g id="patch_5">
    <path d="M 144.332834 461.38 
L 167.273251 461.38 
L 167.273251 140.395152 
L 144.332834 140.395152 
z
" clip-path="url(#p1b0eb43227)" style="fill: #2e1e3b; fill-opacity: 0.5; stroke: #ffffff; stroke-width: 0.685318; stroke-linejoin: miter"/>
   </g>
   <g id="patch_6">
    <path d="M 167.273251 461.38 
L 190.213668 461.38 
L 190.213668 76.198182 
L 167.273251 76.198182 
z
" clip-path="url(#p1b0eb43227)" style="fill: #2e1e3b; fill-opacity: 0.5; stroke: #ffffff; stroke-width: 0.685318; stroke-linejoin: miter"/>
   </g>
   <g id="patch_7">
    <path d="M 190.213668 461.38 
L 213.154084 461.38 
L 213.154084 236.690606 
L 190.213668 236.690606 
z
" clip-path="url(#p1b0eb43227)" style="fill: #2e1e3b; fill-opacity: 0.5; stroke: #ffffff; stroke-width: 0.685318; stroke-linejoin: miter"/>
   </g>
   <g id="patch_8">
    <path d="M 213.154084 461.38 
L 236.094501 461.38 
L 236.094501 236.690606 
L 213.154084 236.690606 
z
" clip-path="url(#p1b0eb43227)" style="fill: #2e1e3b; fill-opacity: 0.5; stroke: #ffffff; stroke-width: 0.685318; stroke-linejoin: miter"/>
   </g>
   <g id="patch_9">
    <path d="M 236.094501 461.38 
L 259.034918 461.38 
L 259.034918 397.18303 
L 236.094501 397.18303 
z
" clip-path="url(#p1b0eb43227)" style="fill: #2e1e3b; fill-opacity: 0.5; stroke: #ffffff; stroke-width: 0.685318; stroke-linejoin: miter"/>
   </g>
   <g id="patch_10">
    <path d="M 259.034918 461.38 
L 281.975335 461.38 
L 281.975335 332.986061 
L 259.034918 332.986061 
z
" clip-path="url(#p1b0eb43227)" style="fill: #2e1e3b; fill-opacity: 0.5; stroke: #ffffff; stroke-width: 0.685318; stroke-linejoin: miter"/>
   </g>
   <g id="patch_11">
    <path d="M 281.975335 461.38 
L 304.915751 461.38 
L 304.915751 204.592121 
L 281.975335 204.592121 
z
" clip-path="url(#p1b0eb43227)" style="fill: #2e1e3b; fill-opacity: 0.5; stroke: #ffffff; stroke-width: 0.685318; stroke-linejoin: miter"/>
   </g>
   <g id="patch_12">
    <path d="M 304.915751 461.38 
L 327.856168 461.38 
L 327.856168 300.887576 
L 304.915751 300.887576 
z
" clip-path="url(#p1b0eb43227)" style="fill: #2e1e3b; fill-opacity: 0.5; stroke: #ffffff; stroke-width: 0.685318; stroke-linejoin: miter"/>
   </g>
   <g id="patch_13">
    <path d="M 327.856168 461.38 
L 350.796585 461.38 
L 350.796585 397.18303 
L 327.856168 397.18303 
z
" clip-path="url(#p1b0eb43227)" style="fill: #2e1e3b; fill-opacity: 0.5; stroke: #ffffff; stroke-width: 0.685318; stroke-linejoin: miter"/>
   </g>
   <g id="patch_14">
    <path d="M 350.796585 461.38 
L 373.737001 461.38 
L 373.737001 461.38 
L 350.796585 461.38 
z
" clip-path="url(#p1b0eb43227)" style="fill: #2e1e3b; fill-opacity: 0.5; stroke: #ffffff; stroke-width: 0.685318; stroke-linejoin: miter"/>
   </g>
   <g id="patch_15">
    <path d="M 373.737001 461.38 
L 396.677418 461.38 
L 396.677418 397.18303 
L 373.737001 397.18303 
z
" clip-path="url(#p1b0eb43227)" style="fill: #2e1e3b; fill-opacity: 0.5; stroke: #ffffff; stroke-width: 0.685318; stroke-linejoin: miter"/>
   </g>
   <g id="patch_16">
    <path d="M 396.677418 461.38 
L 419.617835 461.38 
L 419.617835 365.084545 
L 396.677418 365.084545 
z
" clip-path="url(#p1b0eb43227)" style="fill: #2e1e3b; fill-opacity: 0.5; stroke: #ffffff; stroke-width: 0.685318; stroke-linejoin: miter"/>
   </g>
   <g id="patch_17">
    <path d="M 419.617835 461.38 
L 442.558251 461.38 
L 442.558251 429.281515 
L 419.617835 429.281515 
z
" clip-path="url(#p1b0eb43227)" style="fill: #2e1e3b; fill-opacity: 0.5; stroke: #ffffff; stroke-width: 0.685318; stroke-linejoin: miter"/>
   </g>
   <g id="patch_18">
    <path d="M 442.558251 461.38 
L 465.498668 461.38 
L 465.498668 429.281515 
L 442.558251 429.281515 
z
" clip-path="url(#p1b0eb43227)" style="fill: #2e1e3b; fill-opacity: 0.5; stroke: #ffffff; stroke-width: 0.685318; stroke-linejoin: miter"/>
   </g>
   <g id="patch_19">
    <path d="M 465.498668 461.38 
L 488.439085 461.38 
L 488.439085 429.281515 
L 465.498668 429.281515 
z
" clip-path="url(#p1b0eb43227)" style="fill: #2e1e3b; fill-opacity: 0.5; stroke: #ffffff; stroke-width: 0.685318; stroke-linejoin: miter"/>
   </g>
   <g id="patch_20">
    <path d="M 488.439085 461.38 
L 511.379502 461.38 
L 511.379502 461.38 
L 488.439085 461.38 
z
" clip-path="url(#p1b0eb43227)" style="fill: #2e1e3b; fill-opacity: 0.5; stroke: #ffffff; stroke-width: 0.685318; stroke-linejoin: miter"/>
   </g>
   <g id="patch_21">
    <path d="M 511.379502 461.38 
L 534.319918 461.38 
L 534.319918 429.281515 
L 511.379502 429.281515 
z
" clip-path="url(#p1b0eb43227)" style="fill: #2e1e3b; fill-opacity: 0.5; stroke: #ffffff; stroke-width: 0.685318; stroke-linejoin: miter"/>
   </g>
   <g id="patch_22">
    <path d="M 534.319918 461.38 
L 557.260335 461.38 
L 557.260335 461.38 
L 534.319918 461.38 
z
" clip-path="url(#p1b0eb43227)" style="fill: #2e1e3b; fill-opacity: 0.5; stroke: #ffffff; stroke-width: 0.685318; stroke-linejoin: miter"/>
   </g>
   <g id="patch_23">
    <path d="M 557.260335 461.38 
L 580.200752 461.38 
L 580.200752 461.38 
L 557.260335 461.38 
z
" clip-path="url(#p1b0eb43227)" style="fill: #2e1e3b; fill-opacity: 0.5; stroke: #ffffff; stroke-width: 0.685318; stroke-linejoin: miter"/>
   </g>
   <g id="patch_24">
    <path d="M 580.200752 461.38 
L 603.141168 461.38 
L 603.141168 461.38 
L 580.200752 461.38 
z
" clip-path="url(#p1b0eb43227)" style="fill: #2e1e3b; fill-opacity: 0.5; stroke: #ffffff; stroke-width: 0.685318; stroke-linejoin: miter"/>
   </g>
   <g id="patch_25">
    <path d="M 603.141168 461.38 
L 626.081585 461.38 
L 626.081585 461.38 
L 603.141168 461.38 
z
" clip-path="url(#p1b0eb43227)" style="fill: #2e1e3b; fill-opacity: 0.5; stroke: #ffffff; stroke-width: 0.685318; stroke-linejoin: miter"/>
   </g>
   <g id="patch_26">
    <path d="M 626.081585 461.38 
L 649.022002 461.38 
L 649.022002 461.38 
L 626.081585 461.38 
z
" clip-path="url(#p1b0eb43227)" style="fill: #2e1e3b; fill-opacity: 0.5; stroke: #ffffff; stroke-width: 0.685318; stroke-linejoin: miter"/>
   </g>
   <g id="patch_27">
    <path d="M 649.022002 461.38 
L 671.962418 461.38 
L 671.962418 429.281515 
L 649.022002 429.281515 
z
" clip-path="url(#p1b0eb43227)" style="fill: #2e1e3b; fill-opacity: 0.5; stroke: #ffffff; stroke-width: 0.685318; stroke-linejoin: miter"/>
   </g>
   <g id="patch_28">
    <path d="M 671.962418 461.38 
L 694.902835 461.38 
L 694.902835 461.38 
L 671.962418 461.38 
z
" clip-path="url(#p1b0eb43227)" style="fill: #2e1e3b; fill-opacity: 0.5; stroke: #ffffff; stroke-width: 0.685318; stroke-linejoin: miter"/>
   </g>
   <g id="patch_29">
    <path d="M 694.902835 461.38 
L 717.843252 461.38 
L 717.843252 461.38 
L 694.902835 461.38 
z
" clip-path="url(#p1b0eb43227)" style="fill: #2e1e3b; fill-opacity: 0.5; stroke: #ffffff; stroke-width: 0.685318; stroke-linejoin: miter"/>
   </g>
   <g id="patch_30">
    <path d="M 717.843252 461.38 
L 740.783669 461.38 
L 740.783669 461.38 
L 717.843252 461.38 
z
" clip-path="url(#p1b0eb43227)" style="fill: #2e1e3b; fill-opacity: 0.5; stroke: #ffffff; stroke-width: 0.685318; stroke-linejoin: miter"/>
   </g>
   <g id="patch_31">
    <path d="M 740.783669 461.38 
L 763.724085 461.38 
L 763.724085 461.38 
L 740.783669 461.38 
z
" clip-path="url(#p1b0eb43227)" style="fill: #2e1e3b; fill-opacity: 0.5; stroke: #ffffff; stroke-width: 0.685318; stroke-linejoin: miter"/>
   </g>
   <g id="patch_32">
    <path d="M 763.724085 461.38 
L 786.664502 461.38 
L 786.664502 461.38 
L 763.724085 461.38 
z
" clip-path="url(#p1b0eb43227)" style="fill: #2e1e3b; fill-opacity: 0.5; stroke: #ffffff; stroke-width: 0.685318; stroke-linejoin: miter"/>
   </g>
   <g id="patch_33">
    <path d="M 786.664502 461.38 
L 809.604919 461.38 
L 809.604919 461.38 
L 786.664502 461.38 
z
" clip-path="url(#p1b0eb43227)" style="fill: #2e1e3b; fill-opacity: 0.5; stroke: #ffffff; stroke-width: 0.685318; stroke-linejoin: miter"/>
   </g>
   <g id="patch_34">
    <path d="M 809.604919 461.38 
L 832.545335 461.38 
L 832.545335 461.38 
L 809.604919 461.38 
z
" clip-path="url(#p1b0eb43227)" style="fill: #2e1e3b; fill-opacity: 0.5; stroke: #ffffff; stroke-width: 0.685318; stroke-linejoin: miter"/>
   </g>
   <g id="patch_35">
    <path d="M 832.545335 461.38 
L 855.485752 461.38 
L 855.485752 461.38 
L 832.545335 461.38 
z
" clip-path="url(#p1b0eb43227)" style="fill: #2e1e3b; fill-opacity: 0.5; stroke: #ffffff; stroke-width: 0.685318; stroke-linejoin: miter"/>
   </g>
   <g id="patch_36">
    <path d="M 855.485752 461.38 
L 878.426169 461.38 
L 878.426169 461.38 
L 855.485752 461.38 
z
" clip-path="url(#p1b0eb43227)" style="fill: #2e1e3b; fill-opacity: 0.5; stroke: #ffffff; stroke-width: 0.685318; stroke-linejoin: miter"/>
   </g>
   <g id="patch_37">
    <path d="M 878.426169 461.38 
L 901.366585 461.38 
L 901.366585 461.38 
L 878.426169 461.38 
z
" clip-path="url(#p1b0eb43227)" style="fill: #2e1e3b; fill-opacity: 0.5; stroke: #ffffff; stroke-width: 0.685318; stroke-linejoin: miter"/>
   </g>
   <g id="patch_38">
    <path d="M 901.366585 461.38 
L 924.307002 461.38 
L 924.307002 461.38 
L 901.366585 461.38 
z
" clip-path="url(#p1b0eb43227)" style="fill: #2e1e3b; fill-opacity: 0.5; stroke: #ffffff; stroke-width: 0.685318; stroke-linejoin: miter"/>
   </g>
   <g id="patch_39">
    <path d="M 924.307002 461.38 
L 947.247419 461.38 
L 947.247419 461.38 
L 924.307002 461.38 
z
" clip-path="url(#p1b0eb43227)" style="fill: #2e1e3b; fill-opacity: 0.5; stroke: #ffffff; stroke-width: 0.685318; stroke-linejoin: miter"/>
   </g>
   <g id="patch_40">
    <path d="M 947.247419 461.38 
L 970.187836 461.38 
L 970.187836 429.281515 
L 947.247419 429.281515 
z
" clip-path="url(#p1b0eb43227)" style="fill: #2e1e3b; fill-opacity: 0.5; stroke: #ffffff; stroke-width: 0.685318; stroke-linejoin: miter"/>
   </g>
   <g id="patch_41">
    <path d="M 970.187836 461.38 
L 993.128252 461.38 
L 993.128252 461.38 
L 970.187836 461.38 
z
" clip-path="url(#p1b0eb43227)" style="fill: #2e1e3b; fill-opacity: 0.5; stroke: #ffffff; stroke-width: 0.685318; stroke-linejoin: miter"/>
   </g>
   <g id="patch_42">
    <path d="M 993.128252 461.38 
L 1016.068669 461.38 
L 1016.068669 429.281515 
L 993.128252 429.281515 
z
" clip-path="url(#p1b0eb43227)" style="fill: #2e1e3b; fill-opacity: 0.5; stroke: #ffffff; stroke-width: 0.685318; stroke-linejoin: miter"/>
   </g>
   <g id="line2d_1">
    <path d="M 98.452001 325.728829 
L 107.674279 310.824596 
L 112.285418 303.587535 
L 116.896557 296.562593 
L 121.507696 289.800199 
L 126.118835 283.348945 
L 130.729974 277.254827 
L 135.341113 271.560511 
L 139.952252 266.304648 
L 144.563391 261.521257 
L 149.17453 257.23919 
L 153.785669 253.481683 
L 158.396808 250.266028 
L 163.007947 247.603359 
L 167.619087 245.498554 
L 172.230226 243.950287 
L 176.841365 242.951189 
L 181.452504 242.488152 
L 186.063643 242.542742 
L 190.674782 243.091727 
L 195.285921 244.107698 
L 199.89706 245.559766 
L 204.508199 247.414317 
L 209.119338 249.6358 
L 213.730477 252.187529 
L 218.341616 255.032471 
L 222.952755 258.133999 
L 227.563894 261.456586 
L 232.175033 264.966422 
L 241.397311 272.424232 
L 250.619589 280.288473 
L 264.453006 292.489373 
L 310.564397 333.558237 
L 324.397814 345.565136 
L 333.620092 353.375071 
L 342.84237 360.961388 
L 352.064648 368.260944 
L 361.286926 375.214588 
L 370.509204 381.774763 
L 379.731482 387.911356 
L 388.95376 393.614758 
L 398.176038 398.895726 
L 407.398316 403.7823 
L 416.620594 408.314566 
L 425.842872 412.538345 
L 435.065151 416.498943 
L 444.287429 420.235944 
L 453.509707 423.779676 
L 462.731985 427.149611 
L 471.954263 430.354559 
L 481.176541 433.394277 
L 490.398819 436.261925 
L 499.621097 438.94682 
L 508.843375 441.437005 
L 518.065653 443.721349 
L 527.287931 445.791035 
L 536.510209 447.640485 
L 545.732487 449.267851 
L 554.954765 450.675233 
L 564.177044 451.868791 
L 573.399322 452.858814 
L 582.6216 453.659766 
L 591.843878 454.290222 
L 605.677295 454.966227 
L 619.510712 455.398502 
L 642.566407 455.840401 
L 670.233241 456.394698 
L 688.677797 456.962022 
L 711.733493 457.891436 
L 753.233744 459.629948 
L 771.6783 460.186197 
L 790.122856 460.521704 
L 808.567412 460.610719 
L 827.011968 460.438209 
L 845.456525 459.992425 
L 863.901081 459.271019 
L 882.345637 458.297782 
L 905.401332 456.834499 
L 937.679305 454.778888 
L 951.512722 454.085552 
L 965.34614 453.59821 
L 979.179557 453.362221 
L 993.012974 453.400016 
L 1006.846391 453.708013 
L 1016.068669 454.050047 
L 1016.068669 454.050047 
" clip-path="url(#p1b0eb43227)" style="fill: none; stroke: #2e1e3b; stroke-width: 1.5; stroke-linecap: round"/>
   </g>
   <g id="LineCollection_1">
    <path d="M 1016.068669 461.38 
L 1016.068669 450.7875 
" clip-path="url(#p1b0eb43227)" style="fill: none; stroke: #2e1e3b"/>
    <path d="M 528.584814 461.38 
L 528.584814 450.7875 
" clip-path="url(#p1b0eb43227)" style="fill: none; stroke: #2e1e3b"/>
    <path d="M 445.74442 461.38 
L 445.74442 450.7875 
" clip-path="url(#p1b0eb43227)" style="fill: none; stroke: #2e1e3b"/>
    <path d="M 429.813576 461.38 
L 429.813576 450.7875 
" clip-path="url(#p1b0eb43227)" style="fill: none; stroke: #2e1e3b"/>
    <path d="M 417.0689 461.38 
L 417.0689 450.7875 
" clip-path="url(#p1b0eb43227)" style="fill: none; stroke: #2e1e3b"/>
    <path d="M 410.696562 461.38 
L 410.696562 450.7875 
" clip-path="url(#p1b0eb43227)" style="fill: none; stroke: #2e1e3b"/>
    <path d="M 401.138055 461.38 
L 401.138055 450.7875 
" clip-path="url(#p1b0eb43227)" style="fill: none; stroke: #2e1e3b"/>
    <path d="M 388.393379 461.38 
L 388.393379 450.7875 
" clip-path="url(#p1b0eb43227)" style="fill: none; stroke: #2e1e3b"/>
    <path d="M 385.20721 461.38 
L 385.20721 450.7875 
" clip-path="url(#p1b0eb43227)" style="fill: none; stroke: #2e1e3b"/>
    <path d="M 334.228506 461.38 
L 334.228506 450.7875 
" clip-path="url(#p1b0eb43227)" style="fill: none; stroke: #2e1e3b"/>
    <path d="M 327.856168 461.38 
L 327.856168 450.7875 
" clip-path="url(#p1b0eb43227)" style="fill: none; stroke: #2e1e3b"/>
    <path d="M 318.297661 461.38 
L 318.297661 450.7875 
" clip-path="url(#p1b0eb43227)" style="fill: none; stroke: #2e1e3b"/>
    <path d="M 315.111492 461.38 
L 315.111492 450.7875 
" clip-path="url(#p1b0eb43227)" style="fill: none; stroke: #2e1e3b"/>
    <path d="M 315.111492 461.38 
L 315.111492 450.7875 
" clip-path="url(#p1b0eb43227)" style="fill: none; stroke: #2e1e3b"/>
    <path d="M 308.739154 461.38 
L 308.739154 450.7875 
" clip-path="url(#p1b0eb43227)" style="fill: none; stroke: #2e1e3b"/>
    <path d="M 302.366816 461.38 
L 302.366816 450.7875 
" clip-path="url(#p1b0eb43227)" style="fill: none; stroke: #2e1e3b"/>
    <path d="M 302.366816 461.38 
L 302.366816 450.7875 
" clip-path="url(#p1b0eb43227)" style="fill: none; stroke: #2e1e3b"/>
    <path d="M 299.180647 461.38 
L 299.180647 450.7875 
" clip-path="url(#p1b0eb43227)" style="fill: none; stroke: #2e1e3b"/>
    <path d="M 292.808309 461.38 
L 292.808309 450.7875 
" clip-path="url(#p1b0eb43227)" style="fill: none; stroke: #2e1e3b"/>
    <path d="M 283.249802 461.38 
L 283.249802 450.7875 
" clip-path="url(#p1b0eb43227)" style="fill: none; stroke: #2e1e3b"/>
    <path d="M 283.249802 461.38 
L 283.249802 450.7875 
" clip-path="url(#p1b0eb43227)" style="fill: none; stroke: #2e1e3b"/>
    <path d="M 283.249802 461.38 
L 283.249802 450.7875 
" clip-path="url(#p1b0eb43227)" style="fill: none; stroke: #2e1e3b"/>
    <path d="M 276.877464 461.38 
L 276.877464 450.7875 
" clip-path="url(#p1b0eb43227)" style="fill: none; stroke: #2e1e3b"/>
    <path d="M 276.877464 461.38 
L 276.877464 450.7875 
" clip-path="url(#p1b0eb43227)" style="fill: none; stroke: #2e1e3b"/>
    <path d="M 264.132788 461.38 
L 264.132788 450.7875 
" clip-path="url(#p1b0eb43227)" style="fill: none; stroke: #2e1e3b"/>
    <path d="M 257.76045 461.38 
L 257.76045 450.7875 
" clip-path="url(#p1b0eb43227)" style="fill: none; stroke: #2e1e3b"/>
    <path d="M 251.388112 461.38 
L 251.388112 450.7875 
" clip-path="url(#p1b0eb43227)" style="fill: none; stroke: #2e1e3b"/>
    <path d="M 235.457267 461.38 
L 235.457267 450.7875 
" clip-path="url(#p1b0eb43227)" style="fill: none; stroke: #2e1e3b"/>
    <path d="M 225.89876 461.38 
L 225.89876 450.7875 
" clip-path="url(#p1b0eb43227)" style="fill: none; stroke: #2e1e3b"/>
    <path d="M 213.154084 461.38 
L 213.154084 450.7875 
" clip-path="url(#p1b0eb43227)" style="fill: none; stroke: #2e1e3b"/>
    <path d="M 213.154084 461.38 
L 213.154084 450.7875 
" clip-path="url(#p1b0eb43227)" style="fill: none; stroke: #2e1e3b"/>
    <path d="M 213.154084 461.38 
L 213.154084 450.7875 
" clip-path="url(#p1b0eb43227)" style="fill: none; stroke: #2e1e3b"/>
    <path d="M 209.967915 461.38 
L 209.967915 450.7875 
" clip-path="url(#p1b0eb43227)" style="fill: none; stroke: #2e1e3b"/>
    <path d="M 206.781747 461.38 
L 206.781747 450.7875 
" clip-path="url(#p1b0eb43227)" style="fill: none; stroke: #2e1e3b"/>
    <path d="M 203.595578 461.38 
L 203.595578 450.7875 
" clip-path="url(#p1b0eb43227)" style="fill: none; stroke: #2e1e3b"/>
    <path d="M 203.595578 461.38 
L 203.595578 450.7875 
" clip-path="url(#p1b0eb43227)" style="fill: none; stroke: #2e1e3b"/>
    <path d="M 197.22324 461.38 
L 197.22324 450.7875 
" clip-path="url(#p1b0eb43227)" style="fill: none; stroke: #2e1e3b"/>
    <path d="M 194.037071 461.38 
L 194.037071 450.7875 
" clip-path="url(#p1b0eb43227)" style="fill: none; stroke: #2e1e3b"/>
    <path d="M 190.850902 461.38 
L 190.850902 450.7875 
" clip-path="url(#p1b0eb43227)" style="fill: none; stroke: #2e1e3b"/>
    <path d="M 187.664733 461.38 
L 187.664733 450.7875 
" clip-path="url(#p1b0eb43227)" style="fill: none; stroke: #2e1e3b"/>
    <path d="M 187.664733 461.38 
L 187.664733 450.7875 
" clip-path="url(#p1b0eb43227)" style="fill: none; stroke: #2e1e3b"/>
    <path d="M 184.478564 461.38 
L 184.478564 450.7875 
" clip-path="url(#p1b0eb43227)" style="fill: none; stroke: #2e1e3b"/>
    <path d="M 178.106226 461.38 
L 178.106226 450.7875 
" clip-path="url(#p1b0eb43227)" style="fill: none; stroke: #2e1e3b"/>
    <path d="M 174.920057 461.38 
L 174.920057 450.7875 
" clip-path="url(#p1b0eb43227)" style="fill: none; stroke: #2e1e3b"/>
    <path d="M 171.733888 461.38 
L 171.733888 450.7875 
" clip-path="url(#p1b0eb43227)" style="fill: none; stroke: #2e1e3b"/>
    <path d="M 168.547719 461.38 
L 168.547719 450.7875 
" clip-path="url(#p1b0eb43227)" style="fill: none; stroke: #2e1e3b"/>
    <path d="M 168.547719 461.38 
L 168.547719 450.7875 
" clip-path="url(#p1b0eb43227)" style="fill: none; stroke: #2e1e3b"/>
    <path d="M 168.547719 461.38 
L 168.547719 450.7875 
" clip-path="url(#p1b0eb43227)" style="fill: none; stroke: #2e1e3b"/>
    <path d="M 168.547719 461.38 
L 168.547719 450.7875 
" clip-path="url(#p1b0eb43227)" style="fill: none; stroke: #2e1e3b"/>
    <path d="M 165.36155 461.38 
L 165.36155 450.7875 
" clip-path="url(#p1b0eb43227)" style="fill: none; stroke: #2e1e3b"/>
    <path d="M 165.36155 461.38 
L 165.36155 450.7875 
" clip-path="url(#p1b0eb43227)" style="fill: none; stroke: #2e1e3b"/>
    <path d="M 165.36155 461.38 
L 165.36155 450.7875 
" clip-path="url(#p1b0eb43227)" style="fill: none; stroke: #2e1e3b"/>
    <path d="M 155.803043 461.38 
L 155.803043 450.7875 
" clip-path="url(#p1b0eb43227)" style="fill: none; stroke: #2e1e3b"/>
    <path d="M 155.803043 461.38 
L 155.803043 450.7875 
" clip-path="url(#p1b0eb43227)" style="fill: none; stroke: #2e1e3b"/>
    <path d="M 155.803043 461.38 
L 155.803043 450.7875 
" clip-path="url(#p1b0eb43227)" style="fill: none; stroke: #2e1e3b"/>
    <path d="M 155.803043 461.38 
L 155.803043 450.7875 
" clip-path="url(#p1b0eb43227)" style="fill: none; stroke: #2e1e3b"/>
    <path d="M 155.803043 461.38 
L 155.803043 450.7875 
" clip-path="url(#p1b0eb43227)" style="fill: none; stroke: #2e1e3b"/>
    <path d="M 149.430705 461.38 
L 149.430705 450.7875 
" clip-path="url(#p1b0eb43227)" style="fill: none; stroke: #2e1e3b"/>
    <path d="M 139.872198 461.38 
L 139.872198 450.7875 
" clip-path="url(#p1b0eb43227)" style="fill: none; stroke: #2e1e3b"/>
    <path d="M 136.686029 461.38 
L 136.686029 450.7875 
" clip-path="url(#p1b0eb43227)" style="fill: none; stroke: #2e1e3b"/>
    <path d="M 123.941353 461.38 
L 123.941353 450.7875 
" clip-path="url(#p1b0eb43227)" style="fill: none; stroke: #2e1e3b"/>
    <path d="M 117.569015 461.38 
L 117.569015 450.7875 
" clip-path="url(#p1b0eb43227)" style="fill: none; stroke: #2e1e3b"/>
    <path d="M 117.569015 461.38 
L 117.569015 450.7875 
" clip-path="url(#p1b0eb43227)" style="fill: none; stroke: #2e1e3b"/>
    <path d="M 108.010508 461.38 
L 108.010508 450.7875 
" clip-path="url(#p1b0eb43227)" style="fill: none; stroke: #2e1e3b"/>
    <path d="M 108.010508 461.38 
L 108.010508 450.7875 
" clip-path="url(#p1b0eb43227)" style="fill: none; stroke: #2e1e3b"/>
    <path d="M 108.010508 461.38 
L 108.010508 450.7875 
" clip-path="url(#p1b0eb43227)" style="fill: none; stroke: #2e1e3b"/>
    <path d="M 104.824339 461.38 
L 104.824339 450.7875 
" clip-path="url(#p1b0eb43227)" style="fill: none; stroke: #2e1e3b"/>
    <path d="M 101.63817 461.38 
L 101.63817 450.7875 
" clip-path="url(#p1b0eb43227)" style="fill: none; stroke: #2e1e3b"/>
    <path d="M 98.452001 461.38 
L 98.452001 450.7875 
" clip-path="url(#p1b0eb43227)" style="fill: none; stroke: #2e1e3b"/>
    <path d="M 295.994478 461.38 
L 295.994478 450.7875 
" clip-path="url(#p1b0eb43227)" style="fill: none; stroke: #2e1e3b"/>
    <path d="M 662.403911 461.38 
L 662.403911 450.7875 
" clip-path="url(#p1b0eb43227)" style="fill: none; stroke: #2e1e3b"/>
    <path d="M 187.664733 461.38 
L 187.664733 450.7875 
" clip-path="url(#p1b0eb43227)" style="fill: none; stroke: #2e1e3b"/>
    <path d="M 213.154084 461.38 
L 213.154084 450.7875 
" clip-path="url(#p1b0eb43227)" style="fill: none; stroke: #2e1e3b"/>
    <path d="M 133.49986 461.38 
L 133.49986 450.7875 
" clip-path="url(#p1b0eb43227)" style="fill: none; stroke: #2e1e3b"/>
    <path d="M 158.989212 461.38 
L 158.989212 450.7875 
" clip-path="url(#p1b0eb43227)" style="fill: none; stroke: #2e1e3b"/>
    <path d="M 213.154084 461.38 
L 213.154084 450.7875 
" clip-path="url(#p1b0eb43227)" style="fill: none; stroke: #2e1e3b"/>
    <path d="M 315.111492 461.38 
L 315.111492 450.7875 
" clip-path="url(#p1b0eb43227)" style="fill: none; stroke: #2e1e3b"/>
    <path d="M 187.664733 461.38 
L 187.664733 450.7875 
" clip-path="url(#p1b0eb43227)" style="fill: none; stroke: #2e1e3b"/>
    <path d="M 276.877464 461.38 
L 276.877464 450.7875 
" clip-path="url(#p1b0eb43227)" style="fill: none; stroke: #2e1e3b"/>
    <path d="M 474.419941 461.38 
L 474.419941 450.7875 
" clip-path="url(#p1b0eb43227)" style="fill: none; stroke: #2e1e3b"/>
    <path d="M 136.686029 461.38 
L 136.686029 450.7875 
" clip-path="url(#p1b0eb43227)" style="fill: none; stroke: #2e1e3b"/>
    <path d="M 952.345289 461.38 
L 952.345289 450.7875 
" clip-path="url(#p1b0eb43227)" style="fill: none; stroke: #2e1e3b"/>
    <path d="M 117.569015 461.38 
L 117.569015 450.7875 
" clip-path="url(#p1b0eb43227)" style="fill: none; stroke: #2e1e3b"/>
    <path d="M 120.755184 461.38 
L 120.755184 450.7875 
" clip-path="url(#p1b0eb43227)" style="fill: none; stroke: #2e1e3b"/>
   </g>
   <g id="patch_43">
    <path d="M 52.571168 461.38 
L 52.571168 37.68 
" style="fill: none; stroke: #cccccc; stroke-width: 1.25; stroke-linejoin: miter; stroke-linecap: square"/>
   </g>
   <g id="patch_44">
    <path d="M 52.571168 461.38 
L 1061.949502 461.38 
" style="fill: none; stroke: #cccccc; stroke-width: 1.25; stroke-linejoin: miter; stroke-linecap: square"/>
   </g>
   <g id="text_15">
    <!-- Num. of users who tested the app -->
    <g style="fill: #262626" transform="translate(362.890022 31.68) scale(0.26 -0.26)">
     <defs>
      <path id="ArialMT-4e" d="M 488 0 
L 488 4581 
L 1109 4581 
L 3516 984 
L 3516 4581 
L 4097 4581 
L 4097 0 
L 3475 0 
L 1069 3600 
L 1069 0 
L 488 0 
z
" transform="scale(0.015625)"/>
      <path id="ArialMT-75" d="M 2597 0 
L 2597 488 
Q 2209 -75 1544 -75 
Q 1250 -75 995 37 
Q 741 150 617 320 
Q 494 491 444 738 
Q 409 903 409 1263 
L 409 3319 
L 972 3319 
L 972 1478 
Q 972 1038 1006 884 
Q 1059 663 1231 536 
Q 1403 409 1656 409 
Q 1909 409 2131 539 
Q 2353 669 2445 892 
Q 2538 1116 2538 1541 
L 2538 3319 
L 3100 3319 
L 3100 0 
L 2597 0 
z
" transform="scale(0.015625)"/>
      <path id="ArialMT-6d" d="M 422 0 
L 422 3319 
L 925 3319 
L 925 2853 
Q 1081 3097 1340 3245 
Q 1600 3394 1931 3394 
Q 2300 3394 2536 3241 
Q 2772 3088 2869 2813 
Q 3263 3394 3894 3394 
Q 4388 3394 4653 3120 
Q 4919 2847 4919 2278 
L 4919 0 
L 4359 0 
L 4359 2091 
Q 4359 2428 4304 2576 
Q 4250 2725 4106 2815 
Q 3963 2906 3769 2906 
Q 3419 2906 3187 2673 
Q 2956 2441 2956 1928 
L 2956 0 
L 2394 0 
L 2394 2156 
Q 2394 2531 2256 2718 
Q 2119 2906 1806 2906 
Q 1569 2906 1367 2781 
Q 1166 2656 1075 2415 
Q 984 2175 984 1722 
L 984 0 
L 422 0 
z
" transform="scale(0.015625)"/>
      <path id="ArialMT-2e" d="M 581 0 
L 581 641 
L 1222 641 
L 1222 0 
L 581 0 
z
" transform="scale(0.015625)"/>
      <path id="ArialMT-20" transform="scale(0.015625)"/>
      <path id="ArialMT-6f" d="M 213 1659 
Q 213 2581 725 3025 
Q 1153 3394 1769 3394 
Q 2453 3394 2887 2945 
Q 3322 2497 3322 1706 
Q 3322 1066 3130 698 
Q 2938 331 2570 128 
Q 2203 -75 1769 -75 
Q 1072 -75 642 372 
Q 213 819 213 1659 
z
M 791 1659 
Q 791 1022 1069 705 
Q 1347 388 1769 388 
Q 2188 388 2466 706 
Q 2744 1025 2744 1678 
Q 2744 2294 2464 2611 
Q 2184 2928 1769 2928 
Q 1347 2928 1069 2612 
Q 791 2297 791 1659 
z
" transform="scale(0.015625)"/>
      <path id="ArialMT-66" d="M 556 0 
L 556 2881 
L 59 2881 
L 59 3319 
L 556 3319 
L 556 3672 
Q 556 4006 616 4169 
Q 697 4388 901 4523 
Q 1106 4659 1475 4659 
Q 1713 4659 2000 4603 
L 1916 4113 
Q 1741 4144 1584 4144 
Q 1328 4144 1222 4034 
Q 1116 3925 1116 3625 
L 1116 3319 
L 1763 3319 
L 1763 2881 
L 1116 2881 
L 1116 0 
L 556 0 
z
" transform="scale(0.015625)"/>
      <path id="ArialMT-73" d="M 197 991 
L 753 1078 
Q 800 744 1014 566 
Q 1228 388 1613 388 
Q 2000 388 2187 545 
Q 2375 703 2375 916 
Q 2375 1106 2209 1216 
Q 2094 1291 1634 1406 
Q 1016 1563 777 1677 
Q 538 1791 414 1992 
Q 291 2194 291 2438 
Q 291 2659 392 2848 
Q 494 3038 669 3163 
Q 800 3259 1026 3326 
Q 1253 3394 1513 3394 
Q 1903 3394 2198 3281 
Q 2494 3169 2634 2976 
Q 2775 2784 2828 2463 
L 2278 2388 
Q 2241 2644 2061 2787 
Q 1881 2931 1553 2931 
Q 1166 2931 1000 2803 
Q 834 2675 834 2503 
Q 834 2394 903 2306 
Q 972 2216 1119 2156 
Q 1203 2125 1616 2013 
Q 2213 1853 2448 1751 
Q 2684 1650 2818 1456 
Q 2953 1263 2953 975 
Q 2953 694 2789 445 
Q 2625 197 2315 61 
Q 2006 -75 1616 -75 
Q 969 -75 630 194 
Q 291 463 197 991 
z
" transform="scale(0.015625)"/>
      <path id="ArialMT-65" d="M 2694 1069 
L 3275 997 
Q 3138 488 2766 206 
Q 2394 -75 1816 -75 
Q 1088 -75 661 373 
Q 234 822 234 1631 
Q 234 2469 665 2931 
Q 1097 3394 1784 3394 
Q 2450 3394 2872 2941 
Q 3294 2488 3294 1666 
Q 3294 1616 3291 1516 
L 816 1516 
Q 847 969 1125 678 
Q 1403 388 1819 388 
Q 2128 388 2347 550 
Q 2566 713 2694 1069 
z
M 847 1978 
L 2700 1978 
Q 2663 2397 2488 2606 
Q 2219 2931 1791 2931 
Q 1403 2931 1139 2672 
Q 875 2413 847 1978 
z
" transform="scale(0.015625)"/>
      <path id="ArialMT-72" d="M 416 0 
L 416 3319 
L 922 3319 
L 922 2816 
Q 1116 3169 1280 3281 
Q 1444 3394 1641 3394 
Q 1925 3394 2219 3213 
L 2025 2691 
Q 1819 2813 1613 2813 
Q 1428 2813 1281 2702 
Q 1134 2591 1072 2394 
Q 978 2094 978 1738 
L 978 0 
L 416 0 
z
" transform="scale(0.015625)"/>
      <path id="ArialMT-77" d="M 1034 0 
L 19 3319 
L 600 3319 
L 1128 1403 
L 1325 691 
Q 1338 744 1497 1375 
L 2025 3319 
L 2603 3319 
L 3100 1394 
L 3266 759 
L 3456 1400 
L 4025 3319 
L 4572 3319 
L 3534 0 
L 2950 0 
L 2422 1988 
L 2294 2553 
L 1622 0 
L 1034 0 
z
" transform="scale(0.015625)"/>
      <path id="ArialMT-68" d="M 422 0 
L 422 4581 
L 984 4581 
L 984 2938 
Q 1378 3394 1978 3394 
Q 2347 3394 2619 3248 
Q 2891 3103 3008 2847 
Q 3125 2591 3125 2103 
L 3125 0 
L 2563 0 
L 2563 2103 
Q 2563 2525 2380 2717 
Q 2197 2909 1863 2909 
Q 1613 2909 1392 2779 
Q 1172 2650 1078 2428 
Q 984 2206 984 1816 
L 984 0 
L 422 0 
z
" transform="scale(0.015625)"/>
      <path id="ArialMT-74" d="M 1650 503 
L 1731 6 
Q 1494 -44 1306 -44 
Q 1000 -44 831 53 
Q 663 150 594 308 
Q 525 466 525 972 
L 525 2881 
L 113 2881 
L 113 3319 
L 525 3319 
L 525 4141 
L 1084 4478 
L 1084 3319 
L 1650 3319 
L 1650 2881 
L 1084 2881 
L 1084 941 
Q 1084 700 1114 631 
Q 1144 563 1211 522 
Q 1278 481 1403 481 
Q 1497 481 1650 503 
z
" transform="scale(0.015625)"/>
      <path id="ArialMT-64" d="M 2575 0 
L 2575 419 
Q 2259 -75 1647 -75 
Q 1250 -75 917 144 
Q 584 363 401 755 
Q 219 1147 219 1656 
Q 219 2153 384 2558 
Q 550 2963 881 3178 
Q 1213 3394 1622 3394 
Q 1922 3394 2156 3267 
Q 2391 3141 2538 2938 
L 2538 4581 
L 3097 4581 
L 3097 0 
L 2575 0 
z
M 797 1656 
Q 797 1019 1065 703 
Q 1334 388 1700 388 
Q 2069 388 2326 689 
Q 2584 991 2584 1609 
Q 2584 2291 2321 2609 
Q 2059 2928 1675 2928 
Q 1300 2928 1048 2622 
Q 797 2316 797 1656 
z
" transform="scale(0.015625)"/>
      <path id="ArialMT-61" d="M 2588 409 
Q 2275 144 1986 34 
Q 1697 -75 1366 -75 
Q 819 -75 525 192 
Q 231 459 231 875 
Q 231 1119 342 1320 
Q 453 1522 633 1644 
Q 813 1766 1038 1828 
Q 1203 1872 1538 1913 
Q 2219 1994 2541 2106 
Q 2544 2222 2544 2253 
Q 2544 2597 2384 2738 
Q 2169 2928 1744 2928 
Q 1347 2928 1158 2789 
Q 969 2650 878 2297 
L 328 2372 
Q 403 2725 575 2942 
Q 747 3159 1072 3276 
Q 1397 3394 1825 3394 
Q 2250 3394 2515 3294 
Q 2781 3194 2906 3042 
Q 3031 2891 3081 2659 
Q 3109 2516 3109 2141 
L 3109 1391 
Q 3109 606 3145 398 
Q 3181 191 3288 0 
L 2700 0 
Q 2613 175 2588 409 
z
M 2541 1666 
Q 2234 1541 1622 1453 
Q 1275 1403 1131 1340 
Q 988 1278 909 1158 
Q 831 1038 831 891 
Q 831 666 1001 516 
Q 1172 366 1500 366 
Q 1825 366 2078 508 
Q 2331 650 2450 897 
Q 2541 1088 2541 1459 
L 2541 1666 
z
" transform="scale(0.015625)"/>
      <path id="ArialMT-70" d="M 422 -1272 
L 422 3319 
L 934 3319 
L 934 2888 
Q 1116 3141 1344 3267 
Q 1572 3394 1897 3394 
Q 2322 3394 2647 3175 
Q 2972 2956 3137 2557 
Q 3303 2159 3303 1684 
Q 3303 1175 3120 767 
Q 2938 359 2589 142 
Q 2241 -75 1856 -75 
Q 1575 -75 1351 44 
Q 1128 163 984 344 
L 984 -1272 
L 422 -1272 
z
M 931 1641 
Q 931 1000 1190 694 
Q 1450 388 1819 388 
Q 2194 388 2461 705 
Q 2728 1022 2728 1688 
Q 2728 2322 2467 2637 
Q 2206 2953 1844 2953 
Q 1484 2953 1207 2617 
Q 931 2281 931 1641 
z
" transform="scale(0.015625)"/>
     </defs>
     <use xlink:href="#ArialMT-4e"/>
     <use xlink:href="#ArialMT-75" x="72.216797"/>
     <use xlink:href="#ArialMT-6d" x="127.832031"/>
     <use xlink:href="#ArialMT-2e" x="211.132812"/>
     <use xlink:href="#ArialMT-20" x="238.916016"/>
     <use xlink:href="#ArialMT-6f" x="266.699219"/>
     <use xlink:href="#ArialMT-66" x="322.314453"/>
     <use xlink:href="#ArialMT-20" x="350.097656"/>
     <use xlink:href="#ArialMT-75" x="377.880859"/>
     <use xlink:href="#ArialMT-73" x="433.496094"/>
     <use xlink:href="#ArialMT-65" x="483.496094"/>
     <use xlink:href="#ArialMT-72" x="539.111328"/>
     <use xlink:href="#ArialMT-73" x="572.412109"/>
     <use xlink:href="#ArialMT-20" x="622.412109"/>
     <use xlink:href="#ArialMT-77" x="650.195312"/>
     <use xlink:href="#ArialMT-68" x="722.412109"/>
     <use xlink:href="#ArialMT-6f" x="778.027344"/>
     <use xlink:href="#ArialMT-20" x="833.642578"/>
     <use xlink:href="#ArialMT-74" x="861.425781"/>
     <use xlink:href="#ArialMT-65" x="889.208984"/>
     <use xlink:href="#ArialMT-73" x="944.824219"/>
     <use xlink:href="#ArialMT-74" x="994.824219"/>
     <use xlink:href="#ArialMT-65" x="1022.607422"/>
     <use xlink:href="#ArialMT-64" x="1078.222656"/>
     <use xlink:href="#ArialMT-20" x="1133.837891"/>
     <use xlink:href="#ArialMT-74" x="1161.621094"/>
     <use xlink:href="#ArialMT-68" x="1189.404297"/>
     <use xlink:href="#ArialMT-65" x="1245.019531"/>
     <use xlink:href="#ArialMT-20" x="1300.634766"/>
     <use xlink:href="#ArialMT-61" x="1328.417969"/>
     <use xlink:href="#ArialMT-70" x="1384.033203"/>
     <use xlink:href="#ArialMT-70" x="1439.648438"/>
    </g>
   </g>
  </g>
 </g>
 <defs>
  <clipPath id="p1b0eb43227">
   <rect x="52.571168" y="37.68" width="1009.378335" height="423.7"/>
  </clipPath>
 </defs>
</svg>
