<?xml version="1.0" encoding="utf-8" standalone="no"?>
<!DOCTYPE svg PUBLIC "-//W3C//DTD SVG 1.1//EN"
  "http://www.w3.org/Graphics/SVG/1.1/DTD/svg11.dtd">
<svg xmlns:xlink="http://www.w3.org/1999/xlink" width="936pt" height="504pt" viewBox="0 0 936 504" xmlns="http://www.w3.org/2000/svg" version="1.1">
 <metadata>
  <rdf:RDF xmlns:dc="http://purl.org/dc/elements/1.1/" xmlns:cc="http://creativecommons.org/ns#" xmlns:rdf="http://www.w3.org/1999/02/22-rdf-syntax-ns#">
   <cc:Work>
    <dc:type rdf:resource="http://purl.org/dc/dcmitype/StillImage"/>
    <dc:date>2023-11-05T22:12:46.284135</dc:date>
    <dc:format>image/svg+xml</dc:format>
    <dc:creator>
     <cc:Agent>
      <dc:title>Matplotlib v3.7.1, https://matplotlib.org/</dc:title>
     </cc:Agent>
    </dc:creator>
   </cc:Work>
  </rdf:RDF>
 </metadata>
 <defs>
  <style type="text/css">*{stroke-linejoin: round; stroke-linecap: butt}</style>
 </defs>
 <g id="figure_1">
  <g id="patch_1">
   <path d="M 0 504 
L 936 504 
L 936 0 
L 0 0 
z
" style="fill: #ffffff"/>
  </g>
  <g id="axes_1">
   <g id="patch_2">
    <path d="M 46.478 421.21772 
L 925.632 421.21772 
L 925.632 35.088 
L 46.478 35.088 
z
" style="fill: #ffffff"/>
   </g>
   <g id="matplotlib.axis_1">
    <g id="xtick_1">
     <g id="text_1">
      <!-- 2006 -->
      <g style="fill: #262626" transform="translate(54.477971 467.410784) rotate(-60) scale(0.165888 -0.165888)">
       <defs>
        <path id="ArialMT-32" d="M 3222 541 
L 3222 0 
L 194 0 
Q 188 203 259 391 
Q 375 700 629 1000 
Q 884 1300 1366 1694 
Q 2113 2306 2375 2664 
Q 2638 3022 2638 3341 
Q 2638 3675 2398 3904 
Q 2159 4134 1775 4134 
Q 1369 4134 1125 3890 
Q 881 3647 878 3216 
L 300 3275 
Q 359 3922 746 4261 
Q 1134 4600 1788 4600 
Q 2447 4600 2831 4234 
Q 3216 3869 3216 3328 
Q 3216 3053 3103 2787 
Q 2991 2522 2730 2228 
Q 2469 1934 1863 1422 
Q 1356 997 1212 845 
Q 1069 694 975 541 
L 3222 541 
z
" transform="scale(0.015625)"/>
        <path id="ArialMT-30" d="M 266 2259 
Q 266 3072 433 3567 
Q 600 4063 929 4331 
Q 1259 4600 1759 4600 
Q 2128 4600 2406 4451 
Q 2684 4303 2865 4023 
Q 3047 3744 3150 3342 
Q 3253 2941 3253 2259 
Q 3253 1453 3087 958 
Q 2922 463 2592 192 
Q 2263 -78 1759 -78 
Q 1097 -78 719 397 
Q 266 969 266 2259 
z
M 844 2259 
Q 844 1131 1108 757 
Q 1372 384 1759 384 
Q 2147 384 2411 759 
Q 2675 1134 2675 2259 
Q 2675 3391 2411 3762 
Q 2147 4134 1753 4134 
Q 1366 4134 1134 3806 
Q 844 3388 844 2259 
z
" transform="scale(0.015625)"/>
        <path id="ArialMT-36" d="M 3184 3459 
L 2625 3416 
Q 2550 3747 2413 3897 
Q 2184 4138 1850 4138 
Q 1581 4138 1378 3988 
Q 1113 3794 959 3422 
Q 806 3050 800 2363 
Q 1003 2672 1297 2822 
Q 1591 2972 1913 2972 
Q 2475 2972 2870 2558 
Q 3266 2144 3266 1488 
Q 3266 1056 3080 686 
Q 2894 316 2569 119 
Q 2244 -78 1831 -78 
Q 1128 -78 684 439 
Q 241 956 241 2144 
Q 241 3472 731 4075 
Q 1159 4600 1884 4600 
Q 2425 4600 2770 4297 
Q 3116 3994 3184 3459 
z
M 888 1484 
Q 888 1194 1011 928 
Q 1134 663 1356 523 
Q 1578 384 1822 384 
Q 2178 384 2434 671 
Q 2691 959 2691 1453 
Q 2691 1928 2437 2201 
Q 2184 2475 1800 2475 
Q 1419 2475 1153 2201 
Q 888 1928 888 1484 
z
" transform="scale(0.015625)"/>
       </defs>
       <use xlink:href="#ArialMT-32"/>
       <use xlink:href="#ArialMT-30" x="55.615234"/>
       <use xlink:href="#ArialMT-30" x="111.230469"/>
       <use xlink:href="#ArialMT-36" x="166.845703"/>
      </g>
     </g>
    </g>
    <g id="xtick_2">
     <g id="text_2">
      <!-- 2007 -->
      <g style="fill: #262626" transform="translate(113.088237 467.410784) rotate(-60) scale(0.165888 -0.165888)">
       <defs>
        <path id="ArialMT-37" d="M 303 3981 
L 303 4522 
L 3269 4522 
L 3269 4084 
Q 2831 3619 2401 2847 
Q 1972 2075 1738 1259 
Q 1569 684 1522 0 
L 944 0 
Q 953 541 1156 1306 
Q 1359 2072 1739 2783 
Q 2119 3494 2547 3981 
L 303 3981 
z
" transform="scale(0.015625)"/>
       </defs>
       <use xlink:href="#ArialMT-32"/>
       <use xlink:href="#ArialMT-30" x="55.615234"/>
       <use xlink:href="#ArialMT-30" x="111.230469"/>
       <use xlink:href="#ArialMT-37" x="166.845703"/>
      </g>
     </g>
    </g>
    <g id="xtick_3">
     <g id="text_3">
      <!-- 2008 -->
      <g style="fill: #262626" transform="translate(171.698504 467.410784) rotate(-60) scale(0.165888 -0.165888)">
       <defs>
        <path id="ArialMT-38" d="M 1131 2484 
Q 781 2613 612 2850 
Q 444 3088 444 3419 
Q 444 3919 803 4259 
Q 1163 4600 1759 4600 
Q 2359 4600 2725 4251 
Q 3091 3903 3091 3403 
Q 3091 3084 2923 2848 
Q 2756 2613 2416 2484 
Q 2838 2347 3058 2040 
Q 3278 1734 3278 1309 
Q 3278 722 2862 322 
Q 2447 -78 1769 -78 
Q 1091 -78 675 323 
Q 259 725 259 1325 
Q 259 1772 486 2073 
Q 713 2375 1131 2484 
z
M 1019 3438 
Q 1019 3113 1228 2906 
Q 1438 2700 1772 2700 
Q 2097 2700 2305 2904 
Q 2513 3109 2513 3406 
Q 2513 3716 2298 3927 
Q 2084 4138 1766 4138 
Q 1444 4138 1231 3931 
Q 1019 3725 1019 3438 
z
M 838 1322 
Q 838 1081 952 856 
Q 1066 631 1291 507 
Q 1516 384 1775 384 
Q 2178 384 2440 643 
Q 2703 903 2703 1303 
Q 2703 1709 2433 1975 
Q 2163 2241 1756 2241 
Q 1359 2241 1098 1978 
Q 838 1716 838 1322 
z
" transform="scale(0.015625)"/>
       </defs>
       <use xlink:href="#ArialMT-32"/>
       <use xlink:href="#ArialMT-30" x="55.615234"/>
       <use xlink:href="#ArialMT-30" x="111.230469"/>
       <use xlink:href="#ArialMT-38" x="166.845703"/>
      </g>
     </g>
    </g>
    <g id="xtick_4">
     <g id="text_4">
      <!-- 2009 -->
      <g style="fill: #262626" transform="translate(230.308771 467.410784) rotate(-60) scale(0.165888 -0.165888)">
       <defs>
        <path id="ArialMT-39" d="M 350 1059 
L 891 1109 
Q 959 728 1153 556 
Q 1347 384 1650 384 
Q 1909 384 2104 503 
Q 2300 622 2425 820 
Q 2550 1019 2634 1356 
Q 2719 1694 2719 2044 
Q 2719 2081 2716 2156 
Q 2547 1888 2255 1720 
Q 1963 1553 1622 1553 
Q 1053 1553 659 1965 
Q 266 2378 266 3053 
Q 266 3750 677 4175 
Q 1088 4600 1706 4600 
Q 2153 4600 2523 4359 
Q 2894 4119 3086 3673 
Q 3278 3228 3278 2384 
Q 3278 1506 3087 986 
Q 2897 466 2520 194 
Q 2144 -78 1638 -78 
Q 1100 -78 759 220 
Q 419 519 350 1059 
z
M 2653 3081 
Q 2653 3566 2395 3850 
Q 2138 4134 1775 4134 
Q 1400 4134 1122 3828 
Q 844 3522 844 3034 
Q 844 2597 1108 2323 
Q 1372 2050 1759 2050 
Q 2150 2050 2401 2323 
Q 2653 2597 2653 3081 
z
" transform="scale(0.015625)"/>
       </defs>
       <use xlink:href="#ArialMT-32"/>
       <use xlink:href="#ArialMT-30" x="55.615234"/>
       <use xlink:href="#ArialMT-30" x="111.230469"/>
       <use xlink:href="#ArialMT-39" x="166.845703"/>
      </g>
     </g>
    </g>
    <g id="xtick_5">
     <g id="text_5">
      <!-- 2010 -->
      <g style="fill: #262626" transform="translate(288.919037 467.410784) rotate(-60) scale(0.165888 -0.165888)">
       <defs>
        <path id="ArialMT-31" d="M 2384 0 
L 1822 0 
L 1822 3584 
Q 1619 3391 1289 3197 
Q 959 3003 697 2906 
L 697 3450 
Q 1169 3672 1522 3987 
Q 1875 4303 2022 4600 
L 2384 4600 
L 2384 0 
z
" transform="scale(0.015625)"/>
       </defs>
       <use xlink:href="#ArialMT-32"/>
       <use xlink:href="#ArialMT-30" x="55.615234"/>
       <use xlink:href="#ArialMT-31" x="111.230469"/>
       <use xlink:href="#ArialMT-30" x="166.845703"/>
      </g>
     </g>
    </g>
    <g id="xtick_6">
     <g id="text_6">
      <!-- 2011 -->
      <g style="fill: #262626" transform="translate(348.141016 466.351268) rotate(-60) scale(0.165888 -0.165888)">
       <use xlink:href="#ArialMT-32"/>
       <use xlink:href="#ArialMT-30" x="55.615234"/>
       <use xlink:href="#ArialMT-31" x="111.230469"/>
       <use xlink:href="#ArialMT-31" x="159.470703"/>
      </g>
     </g>
    </g>
    <g id="xtick_7">
     <g id="text_7">
      <!-- 2012 -->
      <g style="fill: #262626" transform="translate(406.139571 467.410784) rotate(-60) scale(0.165888 -0.165888)">
       <use xlink:href="#ArialMT-32"/>
       <use xlink:href="#ArialMT-30" x="55.615234"/>
       <use xlink:href="#ArialMT-31" x="111.230469"/>
       <use xlink:href="#ArialMT-32" x="166.845703"/>
      </g>
     </g>
    </g>
    <g id="xtick_8">
     <g id="text_8">
      <!-- 2013 -->
      <g style="fill: #262626" transform="translate(464.749837 467.410784) rotate(-60) scale(0.165888 -0.165888)">
       <defs>
        <path id="ArialMT-33" d="M 269 1209 
L 831 1284 
Q 928 806 1161 595 
Q 1394 384 1728 384 
Q 2125 384 2398 659 
Q 2672 934 2672 1341 
Q 2672 1728 2419 1979 
Q 2166 2231 1775 2231 
Q 1616 2231 1378 2169 
L 1441 2663 
Q 1497 2656 1531 2656 
Q 1891 2656 2178 2843 
Q 2466 3031 2466 3422 
Q 2466 3731 2256 3934 
Q 2047 4138 1716 4138 
Q 1388 4138 1169 3931 
Q 950 3725 888 3313 
L 325 3413 
Q 428 3978 793 4289 
Q 1159 4600 1703 4600 
Q 2078 4600 2393 4439 
Q 2709 4278 2876 4000 
Q 3044 3722 3044 3409 
Q 3044 3113 2884 2869 
Q 2725 2625 2413 2481 
Q 2819 2388 3044 2092 
Q 3269 1797 3269 1353 
Q 3269 753 2831 336 
Q 2394 -81 1725 -81 
Q 1122 -81 723 278 
Q 325 638 269 1209 
z
" transform="scale(0.015625)"/>
       </defs>
       <use xlink:href="#ArialMT-32"/>
       <use xlink:href="#ArialMT-30" x="55.615234"/>
       <use xlink:href="#ArialMT-31" x="111.230469"/>
       <use xlink:href="#ArialMT-33" x="166.845703"/>
      </g>
     </g>
    </g>
    <g id="xtick_9">
     <g id="text_9">
      <!-- 2014 -->
      <g style="fill: #262626" transform="translate(523.360104 467.410784) rotate(-60) scale(0.165888 -0.165888)">
       <defs>
        <path id="ArialMT-34" d="M 2069 0 
L 2069 1097 
L 81 1097 
L 81 1613 
L 2172 4581 
L 2631 4581 
L 2631 1613 
L 3250 1613 
L 3250 1097 
L 2631 1097 
L 2631 0 
L 2069 0 
z
M 2069 1613 
L 2069 3678 
L 634 1613 
L 2069 1613 
z
" transform="scale(0.015625)"/>
       </defs>
       <use xlink:href="#ArialMT-32"/>
       <use xlink:href="#ArialMT-30" x="55.615234"/>
       <use xlink:href="#ArialMT-31" x="111.230469"/>
       <use xlink:href="#ArialMT-34" x="166.845703"/>
      </g>
     </g>
    </g>
    <g id="xtick_10">
     <g id="text_10">
      <!-- 2015 -->
      <g style="fill: #262626" transform="translate(581.970371 467.410784) rotate(-60) scale(0.165888 -0.165888)">
       <defs>
        <path id="ArialMT-35" d="M 266 1200 
L 856 1250 
Q 922 819 1161 601 
Q 1400 384 1738 384 
Q 2144 384 2425 690 
Q 2706 997 2706 1503 
Q 2706 1984 2436 2262 
Q 2166 2541 1728 2541 
Q 1456 2541 1237 2417 
Q 1019 2294 894 2097 
L 366 2166 
L 809 4519 
L 3088 4519 
L 3088 3981 
L 1259 3981 
L 1013 2750 
Q 1425 3038 1878 3038 
Q 2478 3038 2890 2622 
Q 3303 2206 3303 1553 
Q 3303 931 2941 478 
Q 2500 -78 1738 -78 
Q 1113 -78 717 272 
Q 322 622 266 1200 
z
" transform="scale(0.015625)"/>
       </defs>
       <use xlink:href="#ArialMT-32"/>
       <use xlink:href="#ArialMT-30" x="55.615234"/>
       <use xlink:href="#ArialMT-31" x="111.230469"/>
       <use xlink:href="#ArialMT-35" x="166.845703"/>
      </g>
     </g>
    </g>
    <g id="xtick_11">
     <g id="text_11">
      <!-- 2016 -->
      <g style="fill: #262626" transform="translate(640.580637 467.410784) rotate(-60) scale(0.165888 -0.165888)">
       <use xlink:href="#ArialMT-32"/>
       <use xlink:href="#ArialMT-30" x="55.615234"/>
       <use xlink:href="#ArialMT-31" x="111.230469"/>
       <use xlink:href="#ArialMT-36" x="166.845703"/>
      </g>
     </g>
    </g>
    <g id="xtick_12">
     <g id="text_12">
      <!-- 2017 -->
      <g style="fill: #262626" transform="translate(699.190904 467.410784) rotate(-60) scale(0.165888 -0.165888)">
       <use xlink:href="#ArialMT-32"/>
       <use xlink:href="#ArialMT-30" x="55.615234"/>
       <use xlink:href="#ArialMT-31" x="111.230469"/>
       <use xlink:href="#ArialMT-37" x="166.845703"/>
      </g>
     </g>
    </g>
    <g id="xtick_13">
     <g id="text_13">
      <!-- 2018 -->
      <g style="fill: #262626" transform="translate(757.801171 467.410784) rotate(-60) scale(0.165888 -0.165888)">
       <use xlink:href="#ArialMT-32"/>
       <use xlink:href="#ArialMT-30" x="55.615234"/>
       <use xlink:href="#ArialMT-31" x="111.230469"/>
       <use xlink:href="#ArialMT-38" x="166.845703"/>
      </g>
     </g>
    </g>
    <g id="xtick_14">
     <g id="text_14">
      <!-- 2019 -->
      <g style="fill: #262626" transform="translate(816.411437 467.410784) rotate(-60) scale(0.165888 -0.165888)">
       <use xlink:href="#ArialMT-32"/>
       <use xlink:href="#ArialMT-30" x="55.615234"/>
       <use xlink:href="#ArialMT-31" x="111.230469"/>
       <use xlink:href="#ArialMT-39" x="166.845703"/>
      </g>
     </g>
    </g>
    <g id="xtick_15">
     <g id="text_15">
      <!-- 2020 -->
      <g style="fill: #262626" transform="translate(875.021704 467.410784) rotate(-60) scale(0.165888 -0.165888)">
       <use xlink:href="#ArialMT-32"/>
       <use xlink:href="#ArialMT-30" x="55.615234"/>
       <use xlink:href="#ArialMT-32" x="111.230469"/>
       <use xlink:href="#ArialMT-30" x="166.845703"/>
      </g>
     </g>
    </g>
    <g id="text_16">
     <!-- Years -->
     <g style="fill: #262626" transform="translate(458.324687 488.806484) scale(0.22 -0.22)">
      <defs>
       <path id="ArialMT-59" d="M 1784 0 
L 1784 1941 
L 19 4581 
L 756 4581 
L 1659 3200 
Q 1909 2813 2125 2425 
Q 2331 2784 2625 3234 
L 3513 4581 
L 4219 4581 
L 2391 1941 
L 2391 0 
L 1784 0 
z
" transform="scale(0.015625)"/>
       <path id="ArialMT-65" d="M 2694 1069 
L 3275 997 
Q 3138 488 2766 206 
Q 2394 -75 1816 -75 
Q 1088 -75 661 373 
Q 234 822 234 1631 
Q 234 2469 665 2931 
Q 1097 3394 1784 3394 
Q 2450 3394 2872 2941 
Q 3294 2488 3294 1666 
Q 3294 1616 3291 1516 
L 816 1516 
Q 847 969 1125 678 
Q 1403 388 1819 388 
Q 2128 388 2347 550 
Q 2566 713 2694 1069 
z
M 847 1978 
L 2700 1978 
Q 2663 2397 2488 2606 
Q 2219 2931 1791 2931 
Q 1403 2931 1139 2672 
Q 875 2413 847 1978 
z
" transform="scale(0.015625)"/>
       <path id="ArialMT-61" d="M 2588 409 
Q 2275 144 1986 34 
Q 1697 -75 1366 -75 
Q 819 -75 525 192 
Q 231 459 231 875 
Q 231 1119 342 1320 
Q 453 1522 633 1644 
Q 813 1766 1038 1828 
Q 1203 1872 1538 1913 
Q 2219 1994 2541 2106 
Q 2544 2222 2544 2253 
Q 2544 2597 2384 2738 
Q 2169 2928 1744 2928 
Q 1347 2928 1158 2789 
Q 969 2650 878 2297 
L 328 2372 
Q 403 2725 575 2942 
Q 747 3159 1072 3276 
Q 1397 3394 1825 3394 
Q 2250 3394 2515 3294 
Q 2781 3194 2906 3042 
Q 3031 2891 3081 2659 
Q 3109 2516 3109 2141 
L 3109 1391 
Q 3109 606 3145 398 
Q 3181 191 3288 0 
L 2700 0 
Q 2613 175 2588 409 
z
M 2541 1666 
Q 2234 1541 1622 1453 
Q 1275 1403 1131 1340 
Q 988 1278 909 1158 
Q 831 1038 831 891 
Q 831 666 1001 516 
Q 1172 366 1500 366 
Q 1825 366 2078 508 
Q 2331 650 2450 897 
Q 2541 1088 2541 1459 
L 2541 1666 
z
" transform="scale(0.015625)"/>
       <path id="ArialMT-72" d="M 416 0 
L 416 3319 
L 922 3319 
L 922 2816 
Q 1116 3169 1280 3281 
Q 1444 3394 1641 3394 
Q 1925 3394 2219 3213 
L 2025 2691 
Q 1819 2813 1613 2813 
Q 1428 2813 1281 2702 
Q 1134 2591 1072 2394 
Q 978 2094 978 1738 
L 978 0 
L 416 0 
z
" transform="scale(0.015625)"/>
       <path id="ArialMT-73" d="M 197 991 
L 753 1078 
Q 800 744 1014 566 
Q 1228 388 1613 388 
Q 2000 388 2187 545 
Q 2375 703 2375 916 
Q 2375 1106 2209 1216 
Q 2094 1291 1634 1406 
Q 1016 1563 777 1677 
Q 538 1791 414 1992 
Q 291 2194 291 2438 
Q 291 2659 392 2848 
Q 494 3038 669 3163 
Q 800 3259 1026 3326 
Q 1253 3394 1513 3394 
Q 1903 3394 2198 3281 
Q 2494 3169 2634 2976 
Q 2775 2784 2828 2463 
L 2278 2388 
Q 2241 2644 2061 2787 
Q 1881 2931 1553 2931 
Q 1166 2931 1000 2803 
Q 834 2675 834 2503 
Q 834 2394 903 2306 
Q 972 2216 1119 2156 
Q 1203 2125 1616 2013 
Q 2213 1853 2448 1751 
Q 2684 1650 2818 1456 
Q 2953 1263 2953 975 
Q 2953 694 2789 445 
Q 2625 197 2315 61 
Q 2006 -75 1616 -75 
Q 969 -75 630 194 
Q 291 463 197 991 
z
" transform="scale(0.015625)"/>
      </defs>
      <use xlink:href="#ArialMT-59"/>
      <use xlink:href="#ArialMT-65" x="57.574219"/>
      <use xlink:href="#ArialMT-61" x="113.189453"/>
      <use xlink:href="#ArialMT-72" x="168.804688"/>
      <use xlink:href="#ArialMT-73" x="202.105469"/>
     </g>
    </g>
   </g>
   <g id="matplotlib.axis_2">
    <g id="ytick_1">
     <g id="line2d_1">
      <path d="M 46.478 410.784788 
L 925.632 410.784788 
" clip-path="url(#p062565463f)" style="fill: none; stroke: #cccccc; stroke-width: 0.8; stroke-linecap: round"/>
     </g>
     <g id="text_17">
      <!-- 0 -->
      <g style="fill: #262626" transform="translate(28.953072 416.721764) scale(0.165888 -0.165888)">
       <use xlink:href="#ArialMT-30"/>
      </g>
     </g>
    </g>
    <g id="ytick_2">
     <g id="line2d_2">
      <path d="M 46.478 366.294672 
L 925.632 366.294672 
" clip-path="url(#p062565463f)" style="fill: none; stroke: #cccccc; stroke-width: 0.8; stroke-linecap: round"/>
     </g>
     <g id="text_18">
      <!-- 100 -->
      <g style="fill: #262626" transform="translate(10.503216 372.231648) scale(0.165888 -0.165888)">
       <use xlink:href="#ArialMT-31"/>
       <use xlink:href="#ArialMT-30" x="55.615234"/>
       <use xlink:href="#ArialMT-30" x="111.230469"/>
      </g>
     </g>
    </g>
    <g id="ytick_3">
     <g id="line2d_3">
      <path d="M 46.478 321.804555 
L 925.632 321.804555 
" clip-path="url(#p062565463f)" style="fill: none; stroke: #cccccc; stroke-width: 0.8; stroke-linecap: round"/>
     </g>
     <g id="text_19">
      <!-- 200 -->
      <g style="fill: #262626" transform="translate(10.503216 327.741531) scale(0.165888 -0.165888)">
       <use xlink:href="#ArialMT-32"/>
       <use xlink:href="#ArialMT-30" x="55.615234"/>
       <use xlink:href="#ArialMT-30" x="111.230469"/>
      </g>
     </g>
    </g>
    <g id="ytick_4">
     <g id="line2d_4">
      <path d="M 46.478 277.314439 
L 925.632 277.314439 
" clip-path="url(#p062565463f)" style="fill: none; stroke: #cccccc; stroke-width: 0.8; stroke-linecap: round"/>
     </g>
     <g id="text_20">
      <!-- 300 -->
      <g style="fill: #262626" transform="translate(10.503216 283.251415) scale(0.165888 -0.165888)">
       <use xlink:href="#ArialMT-33"/>
       <use xlink:href="#ArialMT-30" x="55.615234"/>
       <use xlink:href="#ArialMT-30" x="111.230469"/>
      </g>
     </g>
    </g>
    <g id="ytick_5">
     <g id="line2d_5">
      <path d="M 46.478 232.824322 
L 925.632 232.824322 
" clip-path="url(#p062565463f)" style="fill: none; stroke: #cccccc; stroke-width: 0.8; stroke-linecap: round"/>
     </g>
     <g id="text_21">
      <!-- 400 -->
      <g style="fill: #262626" transform="translate(10.503216 238.761298) scale(0.165888 -0.165888)">
       <use xlink:href="#ArialMT-34"/>
       <use xlink:href="#ArialMT-30" x="55.615234"/>
       <use xlink:href="#ArialMT-30" x="111.230469"/>
      </g>
     </g>
    </g>
    <g id="ytick_6">
     <g id="line2d_6">
      <path d="M 46.478 188.334206 
L 925.632 188.334206 
" clip-path="url(#p062565463f)" style="fill: none; stroke: #cccccc; stroke-width: 0.8; stroke-linecap: round"/>
     </g>
     <g id="text_22">
      <!-- 500 -->
      <g style="fill: #262626" transform="translate(10.503216 194.271182) scale(0.165888 -0.165888)">
       <use xlink:href="#ArialMT-35"/>
       <use xlink:href="#ArialMT-30" x="55.615234"/>
       <use xlink:href="#ArialMT-30" x="111.230469"/>
      </g>
     </g>
    </g>
    <g id="ytick_7">
     <g id="line2d_7">
      <path d="M 46.478 143.84409 
L 925.632 143.84409 
" clip-path="url(#p062565463f)" style="fill: none; stroke: #cccccc; stroke-width: 0.8; stroke-linecap: round"/>
     </g>
     <g id="text_23">
      <!-- 600 -->
      <g style="fill: #262626" transform="translate(10.503216 149.781066) scale(0.165888 -0.165888)">
       <use xlink:href="#ArialMT-36"/>
       <use xlink:href="#ArialMT-30" x="55.615234"/>
       <use xlink:href="#ArialMT-30" x="111.230469"/>
      </g>
     </g>
    </g>
    <g id="ytick_8">
     <g id="line2d_8">
      <path d="M 46.478 99.353973 
L 925.632 99.353973 
" clip-path="url(#p062565463f)" style="fill: none; stroke: #cccccc; stroke-width: 0.8; stroke-linecap: round"/>
     </g>
     <g id="text_24">
      <!-- 700 -->
      <g style="fill: #262626" transform="translate(10.503216 105.290949) scale(0.165888 -0.165888)">
       <use xlink:href="#ArialMT-37"/>
       <use xlink:href="#ArialMT-30" x="55.615234"/>
       <use xlink:href="#ArialMT-30" x="111.230469"/>
      </g>
     </g>
    </g>
    <g id="ytick_9">
     <g id="line2d_9">
      <path d="M 46.478 54.863857 
L 925.632 54.863857 
" clip-path="url(#p062565463f)" style="fill: none; stroke: #cccccc; stroke-width: 0.8; stroke-linecap: round"/>
     </g>
     <g id="text_25">
      <!-- 800 -->
      <g style="fill: #262626" transform="translate(10.503216 60.800833) scale(0.165888 -0.165888)">
       <use xlink:href="#ArialMT-38"/>
       <use xlink:href="#ArialMT-30" x="55.615234"/>
       <use xlink:href="#ArialMT-30" x="111.230469"/>
      </g>
     </g>
    </g>
   </g>
   <g id="line2d_10">
    <path d="M 75.783133 397.882654 
L 134.3934 395.658148 
L 193.003667 390.764236 
L 251.613933 390.319334 
L 310.2242 385.425422 
L 368.834467 365.404869 
L 427.444733 355.172143 
L 486.055 328.478073 
L 544.665267 325.363765 
L 603.275533 280.428747 
L 661.8858 289.771671 
L 720.496067 208.79966 
L 779.106333 168.758555 
L 837.7166 85.117136 
L 896.326867 52.639351 
" clip-path="url(#p062565463f)" style="fill: none; stroke: #2e1e3b; stroke-width: 2.16; stroke-linecap: round"/>
   </g>
   <g id="line2d_11">
    <path clip-path="url(#p062565463f)" style="fill: none; stroke: #2e1e3b; stroke-width: 2.16; stroke-linecap: round"/>
   </g>
   <g id="line2d_12">
    <path clip-path="url(#p062565463f)" style="fill: none; stroke: #2e1e3b; stroke-width: 2.16; stroke-linecap: round"/>
   </g>
   <g id="line2d_13">
    <path clip-path="url(#p062565463f)" style="fill: none; stroke: #2e1e3b; stroke-width: 2.16; stroke-linecap: round"/>
   </g>
   <g id="line2d_14">
    <path clip-path="url(#p062565463f)" style="fill: none; stroke: #2e1e3b; stroke-width: 2.16; stroke-linecap: round"/>
   </g>
   <g id="line2d_15">
    <path clip-path="url(#p062565463f)" style="fill: none; stroke: #2e1e3b; stroke-width: 2.16; stroke-linecap: round"/>
   </g>
   <g id="line2d_16">
    <path clip-path="url(#p062565463f)" style="fill: none; stroke: #2e1e3b; stroke-width: 2.16; stroke-linecap: round"/>
   </g>
   <g id="line2d_17">
    <path clip-path="url(#p062565463f)" style="fill: none; stroke: #2e1e3b; stroke-width: 2.16; stroke-linecap: round"/>
   </g>
   <g id="line2d_18">
    <path clip-path="url(#p062565463f)" style="fill: none; stroke: #2e1e3b; stroke-width: 2.16; stroke-linecap: round"/>
   </g>
   <g id="line2d_19">
    <path clip-path="url(#p062565463f)" style="fill: none; stroke: #2e1e3b; stroke-width: 2.16; stroke-linecap: round"/>
   </g>
   <g id="line2d_20">
    <path clip-path="url(#p062565463f)" style="fill: none; stroke: #2e1e3b; stroke-width: 2.16; stroke-linecap: round"/>
   </g>
   <g id="line2d_21">
    <path clip-path="url(#p062565463f)" style="fill: none; stroke: #2e1e3b; stroke-width: 2.16; stroke-linecap: round"/>
   </g>
   <g id="line2d_22">
    <path clip-path="url(#p062565463f)" style="fill: none; stroke: #2e1e3b; stroke-width: 2.16; stroke-linecap: round"/>
   </g>
   <g id="line2d_23">
    <path clip-path="url(#p062565463f)" style="fill: none; stroke: #2e1e3b; stroke-width: 2.16; stroke-linecap: round"/>
   </g>
   <g id="line2d_24">
    <path clip-path="url(#p062565463f)" style="fill: none; stroke: #2e1e3b; stroke-width: 2.16; stroke-linecap: round"/>
   </g>
   <g id="line2d_25">
    <path clip-path="url(#p062565463f)" style="fill: none; stroke: #2e1e3b; stroke-width: 2.16; stroke-linecap: round"/>
   </g>
   <g id="PathCollection_1">
    <defs>
     <path id="m7dea02c302" d="M 0 2.707159 
C 0.717947 2.707159 1.406585 2.421915 1.91425 1.91425 
C 2.421915 1.406585 2.707159 0.717947 2.707159 0 
C 2.707159 -0.717947 2.421915 -1.406585 1.91425 -1.91425 
C 1.406585 -2.421915 0.717947 -2.707159 0 -2.707159 
C -0.717947 -2.707159 -1.406585 -2.421915 -1.91425 -1.91425 
C -2.421915 -1.406585 -2.707159 -0.717947 -2.707159 0 
C -2.707159 0.717947 -2.421915 1.406585 -1.91425 1.91425 
C -1.406585 2.421915 -0.717947 2.707159 0 2.707159 
z
" style="stroke: #2e1e3b; stroke-width: 1.62"/>
    </defs>
    <g clip-path="url(#p062565463f)">
     <use xlink:href="#m7dea02c302" x="75.783133" y="397.882654" style="fill: #2e1e3b; stroke: #2e1e3b; stroke-width: 1.62"/>
     <use xlink:href="#m7dea02c302" x="134.3934" y="395.658148" style="fill: #2e1e3b; stroke: #2e1e3b; stroke-width: 1.62"/>
     <use xlink:href="#m7dea02c302" x="193.003667" y="390.764236" style="fill: #2e1e3b; stroke: #2e1e3b; stroke-width: 1.62"/>
     <use xlink:href="#m7dea02c302" x="251.613933" y="390.319334" style="fill: #2e1e3b; stroke: #2e1e3b; stroke-width: 1.62"/>
     <use xlink:href="#m7dea02c302" x="310.2242" y="385.425422" style="fill: #2e1e3b; stroke: #2e1e3b; stroke-width: 1.62"/>
     <use xlink:href="#m7dea02c302" x="368.834467" y="365.404869" style="fill: #2e1e3b; stroke: #2e1e3b; stroke-width: 1.62"/>
     <use xlink:href="#m7dea02c302" x="427.444733" y="355.172143" style="fill: #2e1e3b; stroke: #2e1e3b; stroke-width: 1.62"/>
     <use xlink:href="#m7dea02c302" x="486.055" y="328.478073" style="fill: #2e1e3b; stroke: #2e1e3b; stroke-width: 1.62"/>
     <use xlink:href="#m7dea02c302" x="544.665267" y="325.363765" style="fill: #2e1e3b; stroke: #2e1e3b; stroke-width: 1.62"/>
     <use xlink:href="#m7dea02c302" x="603.275533" y="280.428747" style="fill: #2e1e3b; stroke: #2e1e3b; stroke-width: 1.62"/>
     <use xlink:href="#m7dea02c302" x="661.8858" y="289.771671" style="fill: #2e1e3b; stroke: #2e1e3b; stroke-width: 1.62"/>
     <use xlink:href="#m7dea02c302" x="720.496067" y="208.79966" style="fill: #2e1e3b; stroke: #2e1e3b; stroke-width: 1.62"/>
     <use xlink:href="#m7dea02c302" x="779.106333" y="168.758555" style="fill: #2e1e3b; stroke: #2e1e3b; stroke-width: 1.62"/>
     <use xlink:href="#m7dea02c302" x="837.7166" y="85.117136" style="fill: #2e1e3b; stroke: #2e1e3b; stroke-width: 1.62"/>
     <use xlink:href="#m7dea02c302" x="896.326867" y="52.639351" style="fill: #2e1e3b; stroke: #2e1e3b; stroke-width: 1.62"/>
    </g>
   </g>
   <g id="line2d_26">
    <path d="M 75.783133 403.666369 
L 134.3934 398.772457 
L 193.003667 401.441864 
L 251.613933 393.878544 
L 310.2242 393.878544 
L 368.834467 386.760125 
L 427.444733 376.082497 
L 486.055 354.727241 
L 544.665267 352.947637 
L 603.275533 306.677916 
L 661.8858 300.449299 
L 720.496067 242.167247 
L 779.106333 189.668909 
L 837.7166 115.370415 
L 896.326867 156.301322 
" clip-path="url(#p062565463f)" style="fill: none; stroke: #413d7b; stroke-width: 2.16; stroke-linecap: round"/>
   </g>
   <g id="line2d_27">
    <path clip-path="url(#p062565463f)" style="fill: none; stroke: #413d7b; stroke-width: 2.16; stroke-linecap: round"/>
   </g>
   <g id="line2d_28">
    <path clip-path="url(#p062565463f)" style="fill: none; stroke: #413d7b; stroke-width: 2.16; stroke-linecap: round"/>
   </g>
   <g id="line2d_29">
    <path clip-path="url(#p062565463f)" style="fill: none; stroke: #413d7b; stroke-width: 2.16; stroke-linecap: round"/>
   </g>
   <g id="line2d_30">
    <path clip-path="url(#p062565463f)" style="fill: none; stroke: #413d7b; stroke-width: 2.16; stroke-linecap: round"/>
   </g>
   <g id="line2d_31">
    <path clip-path="url(#p062565463f)" style="fill: none; stroke: #413d7b; stroke-width: 2.16; stroke-linecap: round"/>
   </g>
   <g id="line2d_32">
    <path clip-path="url(#p062565463f)" style="fill: none; stroke: #413d7b; stroke-width: 2.16; stroke-linecap: round"/>
   </g>
   <g id="line2d_33">
    <path clip-path="url(#p062565463f)" style="fill: none; stroke: #413d7b; stroke-width: 2.16; stroke-linecap: round"/>
   </g>
   <g id="line2d_34">
    <path clip-path="url(#p062565463f)" style="fill: none; stroke: #413d7b; stroke-width: 2.16; stroke-linecap: round"/>
   </g>
   <g id="line2d_35">
    <path clip-path="url(#p062565463f)" style="fill: none; stroke: #413d7b; stroke-width: 2.16; stroke-linecap: round"/>
   </g>
   <g id="line2d_36">
    <path clip-path="url(#p062565463f)" style="fill: none; stroke: #413d7b; stroke-width: 2.16; stroke-linecap: round"/>
   </g>
   <g id="line2d_37">
    <path clip-path="url(#p062565463f)" style="fill: none; stroke: #413d7b; stroke-width: 2.16; stroke-linecap: round"/>
   </g>
   <g id="line2d_38">
    <path clip-path="url(#p062565463f)" style="fill: none; stroke: #413d7b; stroke-width: 2.16; stroke-linecap: round"/>
   </g>
   <g id="line2d_39">
    <path clip-path="url(#p062565463f)" style="fill: none; stroke: #413d7b; stroke-width: 2.16; stroke-linecap: round"/>
   </g>
   <g id="line2d_40">
    <path clip-path="url(#p062565463f)" style="fill: none; stroke: #413d7b; stroke-width: 2.16; stroke-linecap: round"/>
   </g>
   <g id="line2d_41">
    <path clip-path="url(#p062565463f)" style="fill: none; stroke: #413d7b; stroke-width: 2.16; stroke-linecap: round"/>
   </g>
   <g id="PathCollection_2">
    <defs>
     <path id="m04a2c81ac0" d="M 0 2.707159 
C 0.717947 2.707159 1.406585 2.421915 1.91425 1.91425 
C 2.421915 1.406585 2.707159 0.717947 2.707159 0 
C 2.707159 -0.717947 2.421915 -1.406585 1.91425 -1.91425 
C 1.406585 -2.421915 0.717947 -2.707159 0 -2.707159 
C -0.717947 -2.707159 -1.406585 -2.421915 -1.91425 -1.91425 
C -2.421915 -1.406585 -2.707159 -0.717947 -2.707159 0 
C -2.707159 0.717947 -2.421915 1.406585 -1.91425 1.91425 
C -1.406585 2.421915 -0.717947 2.707159 0 2.707159 
z
" style="stroke: #413d7b; stroke-width: 1.62"/>
    </defs>
    <g clip-path="url(#p062565463f)">
     <use xlink:href="#m04a2c81ac0" x="75.783133" y="403.666369" style="fill: #413d7b; stroke: #413d7b; stroke-width: 1.62"/>
     <use xlink:href="#m04a2c81ac0" x="134.3934" y="398.772457" style="fill: #413d7b; stroke: #413d7b; stroke-width: 1.62"/>
     <use xlink:href="#m04a2c81ac0" x="193.003667" y="401.441864" style="fill: #413d7b; stroke: #413d7b; stroke-width: 1.62"/>
     <use xlink:href="#m04a2c81ac0" x="251.613933" y="393.878544" style="fill: #413d7b; stroke: #413d7b; stroke-width: 1.62"/>
     <use xlink:href="#m04a2c81ac0" x="310.2242" y="393.878544" style="fill: #413d7b; stroke: #413d7b; stroke-width: 1.62"/>
     <use xlink:href="#m04a2c81ac0" x="368.834467" y="386.760125" style="fill: #413d7b; stroke: #413d7b; stroke-width: 1.62"/>
     <use xlink:href="#m04a2c81ac0" x="427.444733" y="376.082497" style="fill: #413d7b; stroke: #413d7b; stroke-width: 1.62"/>
     <use xlink:href="#m04a2c81ac0" x="486.055" y="354.727241" style="fill: #413d7b; stroke: #413d7b; stroke-width: 1.62"/>
     <use xlink:href="#m04a2c81ac0" x="544.665267" y="352.947637" style="fill: #413d7b; stroke: #413d7b; stroke-width: 1.62"/>
     <use xlink:href="#m04a2c81ac0" x="603.275533" y="306.677916" style="fill: #413d7b; stroke: #413d7b; stroke-width: 1.62"/>
     <use xlink:href="#m04a2c81ac0" x="661.8858" y="300.449299" style="fill: #413d7b; stroke: #413d7b; stroke-width: 1.62"/>
     <use xlink:href="#m04a2c81ac0" x="720.496067" y="242.167247" style="fill: #413d7b; stroke: #413d7b; stroke-width: 1.62"/>
     <use xlink:href="#m04a2c81ac0" x="779.106333" y="189.668909" style="fill: #413d7b; stroke: #413d7b; stroke-width: 1.62"/>
     <use xlink:href="#m04a2c81ac0" x="837.7166" y="115.370415" style="fill: #413d7b; stroke: #413d7b; stroke-width: 1.62"/>
     <use xlink:href="#m04a2c81ac0" x="896.326867" y="156.301322" style="fill: #413d7b; stroke: #413d7b; stroke-width: 1.62"/>
    </g>
   </g>
   <g id="patch_3">
    <path d="M 46.478 421.21772 
L 46.478 35.088 
" style="fill: none; stroke: #cccccc; stroke-linejoin: miter; stroke-linecap: square"/>
   </g>
   <g id="patch_4">
    <path d="M 46.478 421.21772 
L 925.632 421.21772 
" style="fill: none; stroke: #cccccc; stroke-linejoin: miter; stroke-linecap: square"/>
   </g>
   <g id="text_26">
    <!-- Papers published -->
    <g style="fill: #262626" transform="translate(385.603594 29.088) scale(0.26 -0.26)">
     <defs>
      <path id="ArialMT-50" d="M 494 0 
L 494 4581 
L 2222 4581 
Q 2678 4581 2919 4538 
Q 3256 4481 3484 4323 
Q 3713 4166 3852 3881 
Q 3991 3597 3991 3256 
Q 3991 2672 3619 2267 
Q 3247 1863 2275 1863 
L 1100 1863 
L 1100 0 
L 494 0 
z
M 1100 2403 
L 2284 2403 
Q 2872 2403 3119 2622 
Q 3366 2841 3366 3238 
Q 3366 3525 3220 3729 
Q 3075 3934 2838 4000 
Q 2684 4041 2272 4041 
L 1100 4041 
L 1100 2403 
z
" transform="scale(0.015625)"/>
      <path id="ArialMT-70" d="M 422 -1272 
L 422 3319 
L 934 3319 
L 934 2888 
Q 1116 3141 1344 3267 
Q 1572 3394 1897 3394 
Q 2322 3394 2647 3175 
Q 2972 2956 3137 2557 
Q 3303 2159 3303 1684 
Q 3303 1175 3120 767 
Q 2938 359 2589 142 
Q 2241 -75 1856 -75 
Q 1575 -75 1351 44 
Q 1128 163 984 344 
L 984 -1272 
L 422 -1272 
z
M 931 1641 
Q 931 1000 1190 694 
Q 1450 388 1819 388 
Q 2194 388 2461 705 
Q 2728 1022 2728 1688 
Q 2728 2322 2467 2637 
Q 2206 2953 1844 2953 
Q 1484 2953 1207 2617 
Q 931 2281 931 1641 
z
" transform="scale(0.015625)"/>
      <path id="ArialMT-20" transform="scale(0.015625)"/>
      <path id="ArialMT-75" d="M 2597 0 
L 2597 488 
Q 2209 -75 1544 -75 
Q 1250 -75 995 37 
Q 741 150 617 320 
Q 494 491 444 738 
Q 409 903 409 1263 
L 409 3319 
L 972 3319 
L 972 1478 
Q 972 1038 1006 884 
Q 1059 663 1231 536 
Q 1403 409 1656 409 
Q 1909 409 2131 539 
Q 2353 669 2445 892 
Q 2538 1116 2538 1541 
L 2538 3319 
L 3100 3319 
L 3100 0 
L 2597 0 
z
" transform="scale(0.015625)"/>
      <path id="ArialMT-62" d="M 941 0 
L 419 0 
L 419 4581 
L 981 4581 
L 981 2947 
Q 1338 3394 1891 3394 
Q 2197 3394 2470 3270 
Q 2744 3147 2920 2923 
Q 3097 2700 3197 2384 
Q 3297 2069 3297 1709 
Q 3297 856 2875 390 
Q 2453 -75 1863 -75 
Q 1275 -75 941 416 
L 941 0 
z
M 934 1684 
Q 934 1088 1097 822 
Q 1363 388 1816 388 
Q 2184 388 2453 708 
Q 2722 1028 2722 1663 
Q 2722 2313 2464 2622 
Q 2206 2931 1841 2931 
Q 1472 2931 1203 2611 
Q 934 2291 934 1684 
z
" transform="scale(0.015625)"/>
      <path id="ArialMT-6c" d="M 409 0 
L 409 4581 
L 972 4581 
L 972 0 
L 409 0 
z
" transform="scale(0.015625)"/>
      <path id="ArialMT-69" d="M 425 3934 
L 425 4581 
L 988 4581 
L 988 3934 
L 425 3934 
z
M 425 0 
L 425 3319 
L 988 3319 
L 988 0 
L 425 0 
z
" transform="scale(0.015625)"/>
      <path id="ArialMT-68" d="M 422 0 
L 422 4581 
L 984 4581 
L 984 2938 
Q 1378 3394 1978 3394 
Q 2347 3394 2619 3248 
Q 2891 3103 3008 2847 
Q 3125 2591 3125 2103 
L 3125 0 
L 2563 0 
L 2563 2103 
Q 2563 2525 2380 2717 
Q 2197 2909 1863 2909 
Q 1613 2909 1392 2779 
Q 1172 2650 1078 2428 
Q 984 2206 984 1816 
L 984 0 
L 422 0 
z
" transform="scale(0.015625)"/>
      <path id="ArialMT-64" d="M 2575 0 
L 2575 419 
Q 2259 -75 1647 -75 
Q 1250 -75 917 144 
Q 584 363 401 755 
Q 219 1147 219 1656 
Q 219 2153 384 2558 
Q 550 2963 881 3178 
Q 1213 3394 1622 3394 
Q 1922 3394 2156 3267 
Q 2391 3141 2538 2938 
L 2538 4581 
L 3097 4581 
L 3097 0 
L 2575 0 
z
M 797 1656 
Q 797 1019 1065 703 
Q 1334 388 1700 388 
Q 2069 388 2326 689 
Q 2584 991 2584 1609 
Q 2584 2291 2321 2609 
Q 2059 2928 1675 2928 
Q 1300 2928 1048 2622 
Q 797 2316 797 1656 
z
" transform="scale(0.015625)"/>
     </defs>
     <use xlink:href="#ArialMT-50"/>
     <use xlink:href="#ArialMT-61" x="66.699219"/>
     <use xlink:href="#ArialMT-70" x="122.314453"/>
     <use xlink:href="#ArialMT-65" x="177.929688"/>
     <use xlink:href="#ArialMT-72" x="233.544922"/>
     <use xlink:href="#ArialMT-73" x="266.845703"/>
     <use xlink:href="#ArialMT-20" x="316.845703"/>
     <use xlink:href="#ArialMT-70" x="344.628906"/>
     <use xlink:href="#ArialMT-75" x="400.244141"/>
     <use xlink:href="#ArialMT-62" x="455.859375"/>
     <use xlink:href="#ArialMT-6c" x="511.474609"/>
     <use xlink:href="#ArialMT-69" x="533.691406"/>
     <use xlink:href="#ArialMT-73" x="555.908203"/>
     <use xlink:href="#ArialMT-68" x="605.908203"/>
     <use xlink:href="#ArialMT-65" x="661.523438"/>
     <use xlink:href="#ArialMT-64" x="717.138672"/>
    </g>
   </g>
   <g id="legend_1">
    <g id="patch_5">
     <path d="M 824.337625 414.21772 
L 915.832 414.21772 
Q 918.632 414.21772 918.632 411.41772 
L 918.632 373.04022 
Q 918.632 370.24022 915.832 370.24022 
L 824.337625 370.24022 
Q 821.537625 370.24022 821.537625 373.04022 
L 821.537625 411.41772 
Q 821.537625 414.21772 824.337625 414.21772 
z
" style="fill: #ffffff; opacity: 0.8; stroke: #cccccc; stroke-width: 0.8; stroke-linejoin: miter"/>
    </g>
    <g id="PathCollection_3">
     <g>
      <use xlink:href="#m7dea02c302" x="841.137625" y="382.356783" style="fill: #2e1e3b; stroke: #2e1e3b; stroke-width: 1.62"/>
     </g>
    </g>
    <g id="text_27">
     <!-- Scopus -->
     <g style="fill: #262626" transform="translate(866.337625 386.031783) scale(0.14 -0.14)">
      <defs>
       <path id="ArialMT-53" d="M 288 1472 
L 859 1522 
Q 900 1178 1048 958 
Q 1197 738 1509 602 
Q 1822 466 2213 466 
Q 2559 466 2825 569 
Q 3091 672 3220 851 
Q 3350 1031 3350 1244 
Q 3350 1459 3225 1620 
Q 3100 1781 2813 1891 
Q 2628 1963 1997 2114 
Q 1366 2266 1113 2400 
Q 784 2572 623 2826 
Q 463 3081 463 3397 
Q 463 3744 659 4045 
Q 856 4347 1234 4503 
Q 1613 4659 2075 4659 
Q 2584 4659 2973 4495 
Q 3363 4331 3572 4012 
Q 3781 3694 3797 3291 
L 3216 3247 
Q 3169 3681 2898 3903 
Q 2628 4125 2100 4125 
Q 1550 4125 1298 3923 
Q 1047 3722 1047 3438 
Q 1047 3191 1225 3031 
Q 1400 2872 2139 2705 
Q 2878 2538 3153 2413 
Q 3553 2228 3743 1945 
Q 3934 1663 3934 1294 
Q 3934 928 3725 604 
Q 3516 281 3123 101 
Q 2731 -78 2241 -78 
Q 1619 -78 1198 103 
Q 778 284 539 648 
Q 300 1013 288 1472 
z
" transform="scale(0.015625)"/>
       <path id="ArialMT-63" d="M 2588 1216 
L 3141 1144 
Q 3050 572 2676 248 
Q 2303 -75 1759 -75 
Q 1078 -75 664 370 
Q 250 816 250 1647 
Q 250 2184 428 2587 
Q 606 2991 970 3192 
Q 1334 3394 1763 3394 
Q 2303 3394 2647 3120 
Q 2991 2847 3088 2344 
L 2541 2259 
Q 2463 2594 2264 2762 
Q 2066 2931 1784 2931 
Q 1359 2931 1093 2626 
Q 828 2322 828 1663 
Q 828 994 1084 691 
Q 1341 388 1753 388 
Q 2084 388 2306 591 
Q 2528 794 2588 1216 
z
" transform="scale(0.015625)"/>
       <path id="ArialMT-6f" d="M 213 1659 
Q 213 2581 725 3025 
Q 1153 3394 1769 3394 
Q 2453 3394 2887 2945 
Q 3322 2497 3322 1706 
Q 3322 1066 3130 698 
Q 2938 331 2570 128 
Q 2203 -75 1769 -75 
Q 1072 -75 642 372 
Q 213 819 213 1659 
z
M 791 1659 
Q 791 1022 1069 705 
Q 1347 388 1769 388 
Q 2188 388 2466 706 
Q 2744 1025 2744 1678 
Q 2744 2294 2464 2611 
Q 2184 2928 1769 2928 
Q 1347 2928 1069 2612 
Q 791 2297 791 1659 
z
" transform="scale(0.015625)"/>
      </defs>
      <use xlink:href="#ArialMT-53"/>
      <use xlink:href="#ArialMT-63" x="66.699219"/>
      <use xlink:href="#ArialMT-6f" x="116.699219"/>
      <use xlink:href="#ArialMT-70" x="172.314453"/>
      <use xlink:href="#ArialMT-75" x="227.929688"/>
      <use xlink:href="#ArialMT-73" x="283.544922"/>
     </g>
    </g>
    <g id="PathCollection_4">
     <g>
      <use xlink:href="#m04a2c81ac0" x="841.137625" y="402.16022" style="fill: #413d7b; stroke: #413d7b; stroke-width: 1.62"/>
     </g>
    </g>
    <g id="text_28">
     <!-- WoS -->
     <g style="fill: #262626" transform="translate(866.337625 405.83522) scale(0.14 -0.14)">
      <defs>
       <path id="ArialMT-57" d="M 1294 0 
L 78 4581 
L 700 4581 
L 1397 1578 
Q 1509 1106 1591 641 
Q 1766 1375 1797 1488 
L 2669 4581 
L 3400 4581 
L 4056 2263 
Q 4303 1400 4413 641 
Q 4500 1075 4641 1638 
L 5359 4581 
L 5969 4581 
L 4713 0 
L 4128 0 
L 3163 3491 
Q 3041 3928 3019 4028 
Q 2947 3713 2884 3491 
L 1913 0 
L 1294 0 
z
" transform="scale(0.015625)"/>
      </defs>
      <use xlink:href="#ArialMT-57"/>
      <use xlink:href="#ArialMT-6f" x="92.634766"/>
      <use xlink:href="#ArialMT-53" x="148.25"/>
     </g>
    </g>
   </g>
  </g>
 </g>
 <defs>
  <clipPath id="p062565463f">
   <rect x="46.478" y="35.088" width="879.154" height="386.12972"/>
  </clipPath>
 </defs>
</svg>
